<?xml version="1.0" standalone="no"?>
<!DOCTYPE svg PUBLIC "-//W3C//DTD SVG 1.1//EN" "http://www.w3.org/Graphics/SVG/1.1/DTD/svg11.dtd" >
<svg xmlns="http://www.w3.org/2000/svg" xmlns:xlink="http://www.w3.org/1999/xlink" version="1.1">
<metadata>
Created by FontForge 20170910 at Thu Jul 18 08:51:58 2013
 By Jimmy Wärting
Copyright (c) 2011 by Tarek Atrissi Design. All rights reserved.
</metadata>
<defs>
<font id="Al-Jazeera-Arabic-Regular" horiz-adv-x="397" >
  <font-face 
    font-family="Al-Jazeera-Arabic-Regular"
    font-weight="400"
    font-stretch="normal"
    units-per-em="1000"
    panose-1="1 0 5 0 0 0 0 2 0 6"
    ascent="800"
    descent="-200"
    bbox="-137 -489 1797 1054.14"
    underline-thickness="29"
    underline-position="-479"
    unicode-range="U+0020-FEFC"
  />
<missing-glyph horiz-adv-x="500" 
d="M62 0v562h375v-562h-375zM125 62h250v438h-250v-438z" />
    <glyph glyph-name="shaddehdamatan" unicode="&#x64c;&#x651;" horiz-adv-x="267" arabic-form="isolated" 
d="M66 783q0 -8 -0.5 -18t1 -20t6.5 -16.5t15 -6.5q14 0 20.5 11t6.5 26v32l41 11v-30q0 -14 5 -22.5t16 -8.5q13 0 19.5 9.5t6.5 25.5v34l41 11v-39q0 -45 -19 -65.5t-44 -20.5q-11 0 -25 3.5t-21 11.5q-19 -32 -49 -32q-31 0 -42.5 21t-11.5 44v29zM191 961
q-5 20 -11.5 34.5t-14.5 14.5q-7 -2 -11 -7.5t-6 -12.5q-3 -8 -4 -17q0 -9 6 -13.5t15 -4.5q6 0 12.5 2t13.5 4zM43 877q9 12 26 20.5t31 8.5q10 0 22 -7.5t19 -21.5q16 7 28.5 18.5t18.5 27.5q-6 -1 -16 -2.5t-20 -1.5q-18 0 -30.5 7.5t-12.5 32.5q0 18 6 34.5t15.5 29
t21 20t22.5 7.5t20.5 -8t16 -20.5t10.5 -28.5t4 -32q0 -30 -7.5 -51.5t-20.5 -36.5t-32 -25.5t-41 -19.5q-8 26 -16.5 34.5t-19.5 8.5q-10 0 -24 -9.5t-22 -17.5z" />
    <glyph glyph-name="shaddehkasratan" unicode="&#x64d;&#x651;" horiz-adv-x="255" arabic-form="isolated" 
d="M59 986q0 -8 -0.5 -18t1 -20t6.5 -16.5t15 -6.5q14 0 20.5 11t6.5 26v32l41 11v-30q0 -14 5 -22.5t16 -8.5q13 0 19.5 9.5t6.5 25.5v34l41 11v-39q0 -45 -19 -65.5t-44 -20.5q-11 0 -25 3.5t-21 11.5q-19 -32 -49 -32q-31 0 -42.5 21t-11.5 44v29zM22 736l203 57v-45
l-203 -57v45zM22 819l203 57v-45l-203 -57v45z" />
    <glyph glyph-name="shaddehfatha" unicode="&#x64e;&#x651;" horiz-adv-x="255" arabic-form="isolated" 
d="M66 783q0 -8 -0.5 -18t1 -20t6.5 -16.5t15 -6.5q14 0 20.5 11t6.5 26v32l41 11v-30q0 -14 5 -22.5t16 -8.5q13 0 19.5 9.5t6.5 25.5v34l41 11v-39q0 -45 -19 -65.5t-44 -20.5q-11 0 -25 3.5t-21 11.5q-19 -32 -49 -32q-31 0 -42.5 21t-11.5 44v29zM38 856l203 57v-45
l-203 -57v45z" />
    <glyph glyph-name="shaddehdamma" unicode="&#x64f;&#x651;" horiz-adv-x="260" arabic-form="isolated" 
d="M66 783q0 -8 -0.5 -18t1 -20t6.5 -16.5t15 -6.5q14 0 20.5 11t6.5 26v32l41 11v-30q0 -14 5 -22.5t16 -8.5q13 0 19.5 9.5t6.5 25.5v34l41 11v-39q0 -45 -19 -65.5t-44 -20.5q-11 0 -25 3.5t-21 11.5q-19 -32 -49 -32q-31 0 -42.5 21t-11.5 44v29zM81 872q23 8 46.5 20
t32.5 35q-8 -1 -20.5 -3t-25 -0.5t-22.5 8t-11 22.5q-2 19 3.5 37t14.5 31.5t21 22t24 9.5q9 1 18 -5t16.5 -16.5t12.5 -24t6 -27.5q2 -39 -6.5 -64t-25 -41.5t-38.5 -26.5t-46 -19v42zM162 965q-4 20 -11 35t-15 14q-9 -2 -14 -14.5t-6 -18.5q-2 -19 13.5 -21t32.5 5z" />
    <glyph glyph-name="shaddehkasra" unicode="&#x650;&#x651;" horiz-adv-x="265" arabic-form="isolated" 
d="M38 736l203 57v-45l-203 -57v45zM66 899q0 -8 -0.5 -18t1 -20t6.5 -16.5t15 -6.5q14 0 20.5 11t6.5 26v32l41 11v-30q0 -14 5 -22.5t16 -8.5q13 0 19.5 9.5t6.5 25.5v34l41 11v-39q0 -45 -19 -65.5t-44 -20.5q-11 0 -25 3.5t-21 11.5q-19 -32 -49 -32q-31 0 -42.5 21
t-11.5 44v29z" />
    <glyph glyph-name="aleffathatanfina" unicode="&#xfe8e;&#x64b;" horiz-adv-x="248" arabic-form="final" 
d="M74 642l77 22v-592h112v-72h-189v642zM24 736l203 57v-45l-203 -57v45zM24 819l203 57v-45l-203 -57v45z" />
    <glyph glyph-name="aleffathataniso" unicode="&#x627;&#x64b;" horiz-adv-x="208" arabic-form="isolated" 
d="M61 642l77 22v-664h-77v642zM0 736l203 57v-45l-203 -57v45zM0 819l203 57v-45l-203 -57v45z" />
    <glyph glyph-name="lamalefmaddaaboveiso" unicode="&#xfedf;&#xfe82;" horiz-adv-x="499" arabic-form="isolated" 
d="M51 655q25 -23 60.5 -51t73 -60.5t75 -68.5t67.5 -75q2 2 7 10.5t10.5 20.5t9.5 26t4 26v159l77 22v-184q0 -80 -60 -149q83 -128 83 -228v-103h-423v119q37 24 73.5 53.5t68.5 58.5t58.5 55.5l43.5 43.5q-28 39 -63.5 74.5t-72.5 67t-72 58t-61 47.5zM386 72q0 22 -5 48
t-14 51.5t-21.5 49.5t-27.5 42q-21 -21 -45.5 -47t-52 -52t-56.5 -50t-58 -42h280zM-24 783q26 -14 78.5 -19t115.5 6q17 3 36 6.5t36 6.5q88 16 144 0.5t88 -64.5q-25 14 -75 20t-113 -5q-20 -4 -41 -9t-41 -8q-83 -14 -140.5 2t-87.5 64z" />
    <glyph glyph-name="lamalefmaddaabovefina" unicode="&#xfee0;&#xfe82;" horiz-adv-x="659" arabic-form="final" 
d="M112 508q5 3 16.5 7.5t22.5 9.5q13 5 27 11q32 -50 60 -115.5t51.5 -131t40.5 -123.5t27 -94h10q19 0 35.5 4t28.5 14.5t19 30t7 49.5v470l77 24v-532q0 -32 16.5 -46t43.5 -14h80v-72h-35q-48 0 -82 13.5t-51 43.5q-11 -14 -23.5 -25t-30 -18t-41.5 -10.5t-59 -3.5h-332
l24 72h240q-8 35 -22.5 87.5t-36 111.5t-50 121t-63.5 116zM-89 644q26 -14 78.5 -19t115.5 6q17 3 36 6.5t36 6.5q88 16 144 0.5t88 -64.5q-25 14 -75 20t-113 -5q-20 -4 -41 -9t-41 -8q-83 -14 -140.5 2t-87.5 64z" />
    <glyph glyph-name="lamalefhamzaaboveiso" unicode="&#xfedf;&#xfe84;" horiz-adv-x="499" arabic-form="isolated" 
d="M51 655q25 -23 60.5 -51t73 -60.5t75 -68.5t67.5 -75q2 2 7 10.5t10.5 20.5t9.5 26t4 26v159l77 22v-184q0 -80 -60 -149q83 -128 83 -228v-103h-423v119q37 24 73.5 53.5t68.5 58.5t58.5 55.5l43.5 43.5q-28 39 -63.5 74.5t-72.5 67t-72 58t-61 47.5zM386 72q0 22 -5 48
t-14 51.5t-21.5 49.5t-27.5 42q-21 -21 -45.5 -47t-52 -52t-56.5 -50t-58 -42h280zM138 734l68 21q-22 5 -34 27t-12 41q0 27 11 49.5t29 38.5t40.5 25.5t45.5 10.5t44 -6t36 -25l-42 -38q-13 10 -31 13t-34.5 -1.5t-28 -16.5t-11.5 -30q0 -15 6.5 -26.5t16 -19.5t20 -12.5
t19.5 -5.5l89 26v-53l-232 -69v51z" />
    <glyph glyph-name="lamalefhamzaabovefina" unicode="&#xfee0;&#xfe84;" horiz-adv-x="659" arabic-form="final" 
d="M112 508q5 3 16.5 7.5t22.5 9.5q13 5 27 11q32 -50 60 -115.5t51.5 -131t40.5 -123.5t27 -94h10q19 0 35.5 4t28.5 14.5t19 30t7 49.5v470l77 24v-532q0 -32 16.5 -46t43.5 -14h80v-72h-35q-48 0 -82 13.5t-51 43.5q-11 -14 -23.5 -25t-30 -18t-41.5 -10.5t-59 -3.5h-332
l24 72h240q-8 35 -22.5 87.5t-36 111.5t-50 121t-63.5 116zM48 615l68 21q-22 5 -34 27t-12 41q0 27 11 49.5t29 38.5t40.5 25.5t45.5 10.5t44 -6t36 -25l-42 -38q-13 10 -31 13t-34.5 -1.5t-28 -16.5t-11.5 -30q0 -15 6.5 -26.5t16 -19.5t20 -12.5t19.5 -5.5l89 26v-53
l-232 -69v51z" />
    <glyph glyph-name="lamalefhamzabelowiso" unicode="&#xfedf;&#xfe88;" horiz-adv-x="499" arabic-form="isolated" 
d="M51 655q25 -23 60.5 -51t73 -60.5t75 -68.5t67.5 -75q2 2 7 10.5t10.5 20.5t9.5 26t4 26v159l77 22v-184q0 -80 -60 -149q83 -128 83 -228v-103h-423v119q37 24 73.5 53.5t68.5 58.5t58.5 55.5l43.5 43.5q-28 39 -63.5 74.5t-72.5 67t-72 58t-61 47.5zM386 72q0 22 -5 48
t-14 51.5t-21.5 49.5t-27.5 42q-21 -21 -45.5 -47t-52 -52t-56.5 -50t-58 -42h280zM101 -273l68 21q-22 5 -34 27t-12 41q0 27 11 49.5t29 38.5t40.5 25.5t45.5 10.5t44 -6t36 -25l-42 -38q-13 10 -31 13t-34.5 -1.5t-28 -16.5t-11.5 -30q0 -15 6.5 -26.5t16 -19.5t20 -12.5
t19.5 -5.5l89 26v-53l-232 -69v51z" />
    <glyph glyph-name="lamalefhamzabelowfina" unicode="&#xfee0;&#xfe88;" horiz-adv-x="659" arabic-form="final" 
d="M112 508q5 3 16.5 7.5t22.5 9.5q13 5 27 11q32 -50 60 -115.5t51.5 -131t40.5 -123.5t27 -94h10q19 0 35.5 4t28.5 14.5t19 30t7 49.5v470l77 24v-532q0 -32 16.5 -46t43.5 -14h80v-72h-35q-48 0 -82 13.5t-51 43.5q-11 -14 -23.5 -25t-30 -18t-41.5 -10.5t-59 -3.5h-332
l24 72h240q-8 35 -22.5 87.5t-36 111.5t-50 121t-63.5 116zM131 -273l68 21q-22 5 -34 27t-12 41q0 27 11 49.5t29 38.5t40.5 25.5t45.5 10.5t44 -6t36 -25l-42 -38q-13 10 -31 13t-34.5 -1.5t-28 -16.5t-11.5 -30q0 -15 6.5 -26.5t16 -19.5t20 -12.5t19.5 -5.5l89 26v-53
l-232 -69v51z" />
    <glyph glyph-name="lamalefiso" unicode="&#xfedf;&#xfe8e;" horiz-adv-x="499" arabic-form="isolated" 
d="M51 655q25 -23 60.5 -51t73 -60.5t75 -68.5t67.5 -75q2 2 7 10.5t10.5 20.5t9.5 26t4 26v159l77 22v-184q0 -80 -60 -149q83 -128 83 -228v-103h-423v119q37 24 73.5 53.5t68.5 58.5t58.5 55.5l43.5 43.5q-28 39 -63.5 74.5t-72.5 67t-72 58t-61 47.5zM386 72q0 22 -5 48
t-14 51.5t-21.5 49.5t-27.5 42q-21 -21 -45.5 -47t-52 -52t-56.5 -50t-58 -42h280z" />
    <glyph glyph-name="lamaleffina" unicode="&#xfee0;&#xfe8e;" horiz-adv-x="659" arabic-form="final" 
d="M112 508q5 3 16.5 7.5t22.5 9.5q13 5 27 11q32 -50 60 -115.5t51.5 -131t40.5 -123.5t27 -94h10q19 0 35.5 4t28.5 14.5t19 30t7 49.5v470l77 24v-532q0 -32 16.5 -46t43.5 -14h80v-72h-35q-48 0 -82 13.5t-51 43.5q-11 -14 -23.5 -25t-30 -18t-41.5 -10.5t-59 -3.5h-332
l24 72h240q-8 35 -22.5 87.5t-36 111.5t-50 121t-63.5 116z" />
    <glyph glyph-name="lilah" unicode="&#xfedf;&#xfee0;&#x651;&#x670;&#xfeea;" horiz-adv-x="1150" arabic-form="isolated" 
d="M783 72h234v570l77 22v-664h-671q-22 14 -30.5 29.5t-8.5 16.5q0 -1 -4.5 -8.5t-17.5 -15.5t-37.5 -15t-64.5 -7q-96 0 -141 48.5t-45 133.5q0 40 22 78t69 69.5t120 54.5t174 34v-346h247v570l77 22v-592zM160 181q0 -35 8.5 -56.5t21.5 -33t29.5 -15.5t32.5 -4h130v259
q-61 -11 -103.5 -27t-68.5 -35.5t-38 -41.5t-12 -46z" />
    <glyph glyph-name="shaddahfathatan" unicode="&#x64b;&#x651;" horiz-adv-x="255" 
d="M66 783q0 -8 -0.5 -18t1 -20t6.5 -16.5t15 -6.5q14 0 20.5 11t6.5 26v32l41 11v-30q0 -14 5 -22.5t16 -8.5q13 0 19.5 9.5t6.5 25.5v34l41 11v-39q0 -45 -19 -65.5t-44 -20.5q-11 0 -25 3.5t-21 11.5q-19 -32 -49 -32q-31 0 -42.5 21t-11.5 44v29zM30 852l203 57v-45
l-203 -57v45zM30 935l203 57v-45l-203 -57v45z" />
    <glyph glyph-name="lammeeminitial" unicode="&#xfedf;&#xfee4;" horiz-adv-x="858" arabic-form="initial" 
d="M658 72v570l77 22v-664h-310q-14 -26 -23.5 -32.5t-24.5 -6.5q-13 0 -28 7q-30 12 -80.5 34.5t-123.5 59.5q-17 -38 -41 -50t-66 -12h-53v72h79q30 69 66 129.5t69.5 105.5t62 71t45.5 26q24 0 44 -19.5t36.5 -49.5t28.5 -67t20 -72t11.5 -64.5t2.5 -44.5q0 -3 -0.5 -7
t-0.5 -8h209zM375 49q-4 45 -10.5 90.5t-15.5 82t-21 59.5t-27 23q-14 0 -33.5 -21t-38.5 -48.5t-34 -54t-20 -36.5q21 -16 47 -30.5t53 -27t53 -22t47 -15.5z" />
    <glyph glyph-name="faya" unicode="&#xfed3;&#xfef2;" horiz-adv-x="1420" 
d="M1369 105q0 -105 -75 -105h-529q0 82 -7.5 140.5t-20 97.5t-28.5 62t-32.5 35t-32.5 15t-28 3q-29 0 -58.5 -10.5t-53.5 -30.5t-39 -48.5t-15 -64.5q0 -10 4.5 -22t20.5 -12h114q15 0 28 -2t22.5 -10t15 -25.5t5.5 -47.5q0 -68 -17.5 -112.5t-53.5 -70.5t-92.5 -37
t-134.5 -11q-59 0 -106.5 19t-81 49t-52 67.5t-18.5 74.5q0 46 7 81.5t18 62.5t24 47.5t25 37.5h60q-22 -41 -39 -87.5t-17 -91.5q0 -96 48.5 -140t132.5 -44q88 0 134 15t65.5 38t21 50.5t1.5 52.5q0 12 -16 12h-72q-39 0 -64.5 3t-40.5 10.5t-21 21t-6 34.5
q0 39 15.5 84.5t47 84t80.5 64t117 25.5q45 0 78 -17t56.5 -45t38.5 -64.5t24.5 -75t14.5 -77t7 -69.5h310q-21 10 -45.5 27.5t-44.5 40t-33.5 49t-13.5 55.5q0 33 9.5 65.5t32 59t59.5 43t92 16.5q51 0 82 -23t48 -59t23 -80t6 -87v-74zM1292 94q0 73 -1.5 123.5t-10.5 82
t-29.5 46t-58.5 14.5q-29 0 -48 -6.5t-30 -18.5t-15 -30t-4 -41q0 -30 14.5 -59t41 -53t62.5 -39.5t79 -18.5zM418 -284q0 24 16 40t39 16t38.5 -16t15.5 -40q0 -23 -15.5 -38t-38.5 -15t-39 15t-16 38zM1132 546q0 24 16 40t39 16t38.5 -16t15.5 -40q0 -23 -15.5 -38
t-38.5 -15t-39 15t-16 38zM254 -284q0 24 16 40t39 16t38.5 -16t15.5 -40q0 -23 -15.5 -38t-38.5 -15t-39 15t-16 38z" />
    <glyph glyph-name="ala" unicode="&#xfecb;&#xfee0;&#xfbfd;" horiz-adv-x="1864" 
d="M1123 72h292q-25 42 -33.5 87t-8.5 87q0 81 59.5 127.5t164.5 49.5q42 2 95 -5t101 -16v-75q-15 4 -37.5 9t-49 9t-55 6.5t-55.5 2.5t-52 -6t-44.5 -19.5t-31 -34t-11.5 -48.5q0 -27 5.5 -54t13.5 -50.5t17.5 -42t17.5 -27.5h286v-72h-1032q0 82 -7.5 140.5t-20 97.5
t-28.5 62t-32.5 35t-32.5 15t-28 3q-29 0 -58.5 -10.5t-53.5 -30.5t-39 -48.5t-15 -64.5q0 -10 4.5 -22t20.5 -12h114q15 0 28 -2t22.5 -10t15 -25.5t5.5 -47.5q0 -68 -17.5 -112.5t-53.5 -70.5t-92.5 -37t-134.5 -11q-59 0 -106.5 19t-81 49t-52 67.5t-18.5 74.5
q0 46 7 81.5t18 62.5t24 47.5t25 37.5h60q-22 -41 -39 -87.5t-17 -91.5q0 -96 48.5 -140t132.5 -44q88 0 134 15t65.5 38t21 50.5t1.5 52.5q0 12 -16 12h-72q-39 0 -64.5 3t-40.5 10.5t-21 21t-6 34.5q0 39 15.5 84.5t47 84t80.5 64t117 25.5q45 0 78 -17t56.5 -45
t38.5 -64.5t24.5 -75t14.5 -77t7 -69.5h202v570l77 22v-592z" />
    <glyph glyph-name="hamza" unicode="&#x621;" horiz-adv-x="415" arabic-form="isolated" 
d="M39 -9q22 18 51 37t53 34q-16 3 -29.5 14.5t-23 27.5t-15 32.5t-5.5 30.5q0 30 14.5 57t38 47.5t53.5 33.5t61.5 15.5t62 -7.5t54.5 -35l-64 -58q-21 21 -48 24q-42 4 -62.5 -14t-23.5 -47q-2 -20 6.5 -35.5t22 -26.5t29.5 -16t29 -2q23 5 41.5 10t35.5 10t33.5 9t35.5 6
q-10 -22 -19 -43t-17 -51q-40 0 -81.5 -8.5t-82 -23t-79 -34t-71.5 -41.5v54z" />
    <glyph glyph-name="alefmaddaaboveiso" unicode="&#x622;" horiz-adv-x="208" arabic-form="isolated" 
d="M61 642l77 22v-664h-77v642zM-137 783q26 -14 78.5 -19t115.5 6q17 3 36 6.5t36 6.5q88 16 144 0.5t88 -64.5q-25 14 -75 20t-113 -5q-20 -4 -41 -9t-41 -8q-83 -14 -140.5 2t-87.5 64z" />
    <glyph glyph-name="alefhamzaaboveiso" unicode="&#x623;" horiz-adv-x="208" arabic-form="isolated" 
d="M61 642l77 22v-664h-77v642zM-30 734l68 21q-22 5 -34 27t-12 41q0 27 11 49.5t29 38.5t40.5 25.5t45.5 10.5t44 -6t36 -25l-42 -38q-13 10 -31 13t-34.5 -1.5t-28 -16.5t-11.5 -30q0 -15 6.5 -26.5t16 -19.5t20 -12.5t19.5 -5.5l89 26v-53l-232 -69v51z" />
    <glyph glyph-name="wawhamzaiso" unicode="&#x624;" horiz-adv-x="446" arabic-form="isolated" 
d="M147 -157q46 3 84 21q16 7 32 18.5t29.5 28t23.5 38.5t13 51h-113q-91 0 -136 40.5t-45 125.5q0 39 19 77.5t61 71.5t107.5 58t158.5 38q14 -85 23 -188t5 -223q-1 -24 -12 -60.5t-38 -71t-73 -62t-117 -33.5zM331 72q0 9 -0.5 18t-0.5 18q0 24 -1 51.5t-3 55.5t-4.5 56
t-5.5 52q-105 -25 -151.5 -62.5t-48.5 -92.5q0 -15 3.5 -31.5t13.5 -31t26 -24t42 -9.5h130zM106 483l68 21q-22 5 -34 27t-12 41q0 27 11 49.5t29 38.5t40.5 25.5t45.5 10.5t44 -6t36 -25l-42 -38q-13 10 -31 13t-34.5 -1.5t-28 -16.5t-11.5 -30q0 -15 6.5 -26.5t16 -19.5
t20 -12.5t19.5 -5.5l89 26v-53l-232 -69v51z" />
    <glyph glyph-name="alefhamzabelowiso" unicode="&#x625;" horiz-adv-x="208" arabic-form="isolated" 
d="M61 642l77 22v-664h-77v642zM-20 -273l68 21q-22 5 -34 27t-12 41q0 27 11 49.5t29 38.5t40.5 25.5t45.5 10.5t44 -6t36 -25l-42 -38q-13 10 -31 13t-34.5 -1.5t-28 -16.5t-11.5 -30q0 -15 6.5 -26.5t16 -19.5t20 -12.5t19.5 -5.5l89 26v-53l-232 -69v51z" />
    <glyph glyph-name="hamzakirsehiso" unicode="&#x626;" horiz-adv-x="651" arabic-form="isolated" 
d="M551 354q-29 0 -57.5 -10.5t-51 -31t-37 -49t-14.5 -64.5q0 -10 4.5 -22t20.5 -12h114q15 0 28 -2t22.5 -10t15 -25.5t5.5 -47.5q0 -68 -17.5 -112.5t-53.5 -70.5t-92.5 -37t-134.5 -11q-59 0 -106.5 19t-81 49t-52 67.5t-18.5 74.5q0 46 7 81.5t18 62.5t24 47.5t25 37.5
h60q-22 -41 -39 -87.5t-17 -91.5q0 -96 48.5 -140t132.5 -44q88 0 134 15t65.5 38t21 50.5t1.5 52.5q0 12 -16 12h-72q-39 0 -64.5 3t-40.5 10.5t-21 21t-6 34.5q0 39 15.5 84.5t47 84t80.5 64t117 25.5q20 0 27.5 -8.5t7.5 -20.5q0 -5 -1.5 -12.5t-4.5 -14.5t-7 -12t-10 -5
t-12.5 3.5t-14.5 3.5zM96 394l68 21q-22 5 -34 27t-12 41q0 27 11 49.5t29 38.5t40.5 25.5t45.5 10.5t44 -6t36 -25l-42 -38q-13 10 -31 13t-34.5 -1.5t-28 -16.5t-11.5 -30q0 -15 6.5 -26.5t16 -19.5t20 -12.5t19.5 -5.5l89 26v-53l-232 -69v51z" />
    <glyph glyph-name="alefiso" unicode="&#x627;" horiz-adv-x="208" arabic-form="isolated" 
d="M61 642l77 22v-664h-77v642z" />
    <glyph glyph-name="behiso" unicode="&#x628;" horiz-adv-x="822" arabic-form="isolated" 
d="M507 72h188v330l77 22v-424h-265h-49h-146h-69q-42 0 -78 7t-63 23t-42 42t-15 63q0 56 10.5 96.5t25 69.5t30.5 50.5t27 40.5h70q-35 -56 -57.5 -113t-23.5 -103t24.5 -75t88.5 -29h72h195zM377 -141q0 24 16 40t39 16t38.5 -16t15.5 -40q0 -23 -15.5 -38t-38.5 -15
t-39 15t-16 38z" />
    <glyph glyph-name="taiso" unicode="&#x62a;" horiz-adv-x="822" arabic-form="isolated" 
d="M507 72h188v330l77 22v-424h-265h-49h-146h-69q-42 0 -78 7t-63 23t-42 42t-15 63q0 56 10.5 96.5t25 69.5t30.5 50.5t27 40.5h70q-35 -56 -57.5 -113t-23.5 -103t24.5 -75t88.5 -29h72h195zM306 546q0 24 16 40t39 16t38.5 -16t15.5 -40q0 -23 -15.5 -38t-38.5 -15
t-39 15t-16 38zM470 546q0 24 16 40t39 16t38.5 -16t15.5 -40q0 -23 -15.5 -38t-38.5 -15t-39 15t-16 38z" />
    <glyph glyph-name="thaiso" unicode="&#x62b;" horiz-adv-x="822" arabic-form="isolated" 
d="M507 72h188v330l77 22v-424h-265h-49h-146h-69q-42 0 -78 7t-63 23t-42 42t-15 63q0 56 10.5 96.5t25 69.5t30.5 50.5t27 40.5h70q-35 -56 -57.5 -113t-23.5 -103t24.5 -75t88.5 -29h72h195zM315 546q0 24 16 40t39 16t38.5 -16t15.5 -40q0 -23 -15.5 -38t-38.5 -15
t-39 15t-16 38zM479 546q0 24 16 40t39 16t38.5 -16t15.5 -40q0 -23 -15.5 -38t-38.5 -15t-39 15t-16 38zM395 682q0 24 16 40t39 16t38.5 -16t15.5 -40q0 -23 -15.5 -38t-38.5 -15t-39 15t-16 38z" />
    <glyph glyph-name="jeemiso" unicode="&#x62c;" horiz-adv-x="643" arabic-form="isolated" 
d="M603 218q-62 4 -120.5 -7t-111 -32t-96.5 -51t-76 -64.5t-50 -71.5t-18 -73q0 -44 20.5 -74.5t57.5 -49.5t89 -28t115 -9q28 0 58 2t62 6l-1 -60q-89 -24 -172 -24q-57 0 -112.5 13.5t-100 39.5t-72 64t-27.5 88q0 63 26.5 123t77 111.5t122.5 91t164 62.5q-14 4 -39 15
t-55 22.5t-62 20.5t-60 9q-13 0 -29 -4.5t-32.5 -13t-32.5 -21t-29 -28.5l-54 46q16 19 38 37.5t47.5 33t52.5 23.5t53 9q29 0 73 -18.5t104 -38.5q57 -19 101.5 -28t88.5 -10v-111zM334 -12q0 24 16 40t39 16t38.5 -16t15.5 -40q0 -23 -15.5 -38t-38.5 -15t-39 15t-16 38z
" />
    <glyph glyph-name="haaiso" unicode="&#x62d;" horiz-adv-x="643" arabic-form="isolated" 
d="M603 218q-62 4 -120.5 -7t-111 -32t-96.5 -51t-76 -64.5t-50 -71.5t-18 -73q0 -44 20.5 -74.5t57.5 -49.5t89 -28t115 -9q28 0 58 2t62 6l-1 -60q-89 -24 -172 -24q-57 0 -112.5 13.5t-100 39.5t-72 64t-27.5 88q0 63 26.5 123t77 111.5t122.5 91t164 62.5q-14 4 -39 15
t-55 22.5t-62 20.5t-60 9q-13 0 -29 -4.5t-32.5 -13t-32.5 -21t-29 -28.5l-54 46q16 19 38 37.5t47.5 33t52.5 23.5t53 9q29 0 73 -18.5t104 -38.5q57 -19 101.5 -28t88.5 -10v-111z" />
    <glyph glyph-name="khaiso" unicode="&#x62e;" horiz-adv-x="643" arabic-form="isolated" 
d="M603 218q-62 4 -120.5 -7t-111 -32t-96.5 -51t-76 -64.5t-50 -71.5t-18 -73q0 -44 20.5 -74.5t57.5 -49.5t89 -28t115 -9q28 0 58 2t62 6l-1 -60q-89 -24 -172 -24q-57 0 -112.5 13.5t-100 39.5t-72 64t-27.5 88q0 63 26.5 123t77 111.5t122.5 91t164 62.5q-14 4 -39 15
t-55 22.5t-62 20.5t-60 9q-13 0 -29 -4.5t-32.5 -13t-32.5 -21t-29 -28.5l-54 46q16 19 38 37.5t47.5 33t52.5 23.5t53 9q29 0 73 -18.5t104 -38.5q57 -19 101.5 -28t88.5 -10v-111zM275 546q0 24 16 40t39 16t38.5 -16t15.5 -40q0 -23 -15.5 -38t-38.5 -15t-39 15t-16 38z
" />
    <glyph glyph-name="daliso" unicode="&#x62f;" horiz-adv-x="510" arabic-form="isolated" 
d="M55 87q11 -4 24 -8q11 -3 26 -5t33 -2h241q1 29 -6.5 69t-28.5 82t-58 80.5t-96 64.5l23 84q46 -14 91.5 -51.5t82.5 -89.5t60 -114t23 -125v-72h-341q-18 0 -32 2.5t-25 5.5q-12 4 -22 8z" />
    <glyph glyph-name="zaliso" unicode="&#x630;" horiz-adv-x="510" arabic-form="isolated" 
d="M55 87q11 -4 24 -8q11 -3 26 -5t33 -2h241q1 29 -6.5 69t-28.5 82t-58 80.5t-96 64.5l23 84q46 -14 91.5 -51.5t82.5 -89.5t60 -114t23 -125v-72h-341q-18 0 -32 2.5t-25 5.5q-12 4 -22 8zM173 546q0 24 16 40t39 16t38.5 -16t15.5 -40q0 -23 -15.5 -38t-38.5 -15t-39 15
t-16 38z" />
    <glyph glyph-name="raiso" unicode="&#x631;" horiz-adv-x="286" arabic-form="isolated" 
d="M213 429q15 -86 25.5 -195t6.5 -234q-1 -26 -12 -63.5t-40.5 -73.5t-79.5 -62t-129 -29l-19 57q56 9 101 33q19 10 37 24.5t32 34.5t23 46t9 59q0 90 -5 189t-28 190z" />
    <glyph glyph-name="zaiso" unicode="&#x632;" horiz-adv-x="286" arabic-form="isolated" 
d="M213 429q15 -86 25.5 -195t6.5 -234q-1 -26 -12 -63.5t-40.5 -73.5t-79.5 -62t-129 -29l-19 57q56 9 101 33q19 10 37 24.5t32 34.5t23 46t9 59q0 90 -5 189t-28 190zM84 546q0 24 16 40t39 16t38.5 -16t15.5 -40q0 -23 -15.5 -38t-38.5 -15t-39 15t-16 38z" />
    <glyph glyph-name="seeniso" unicode="&#x633;" horiz-adv-x="1080" arabic-form="isolated" 
d="M191 233q-26 -43 -47 -96.5t-21 -104.5q0 -96 48.5 -140.5t132.5 -44.5q34 0 64 10.5t54 29t40.5 43t23.5 53.5q2 10 4 21t2 22v376l77 22v-352h150v330l77 22v-352h151v330l77 22v-424h-455q-21 -121 -89.5 -175t-176.5 -54q-59 0 -106.5 19t-81 49.5t-52 68t-18.5 74.5
q0 54 9.5 93t23.5 68.5t29 50.5t27 39h57z" />
    <glyph glyph-name="sheeniso" unicode="&#x634;" horiz-adv-x="1080" arabic-form="isolated" 
d="M191 233q-26 -43 -47 -96.5t-21 -104.5q0 -96 48.5 -140.5t132.5 -44.5q34 0 64 10.5t54 29t40.5 43t23.5 53.5q2 10 4 21t2 22v376l77 22v-352h150v330l77 22v-352h151v330l77 22v-424h-455q-21 -121 -89.5 -175t-176.5 -54q-59 0 -106.5 19t-81 49.5t-52 68t-18.5 74.5
q0 54 9.5 93t23.5 68.5t29 50.5t27 39h57zM625 546q0 24 16 40t39 16t38.5 -16t15.5 -40q0 -23 -15.5 -38t-38.5 -15t-39 15t-16 38zM789 546q0 24 16 40t39 16t38.5 -16t15.5 -40q0 -23 -15.5 -38t-38.5 -15t-39 15t-16 38zM705 682q0 24 16 40t39 16t38.5 -16t15.5 -40
q0 -23 -15.5 -38t-38.5 -15t-39 15t-16 38z" />
    <glyph glyph-name="sadiso" unicode="&#x635;" horiz-adv-x="1165" arabic-form="isolated" 
d="M1023 72v91q0 28 -4.5 55t-19 48.5t-40 34.5t-67.5 13q-29 0 -69.5 -18t-84.5 -50.5t-88.5 -77t-81.5 -96.5h455zM492 44v267l77 25v-63v-88q98 103 185.5 152t165.5 49q57 0 91.5 -26.5t54 -67.5t26.5 -89.5t8 -93.5v-109h-531q-21 -121 -89.5 -175t-176.5 -54
q-59 0 -106.5 19t-81 49.5t-52 68t-18.5 74.5q0 54 9.5 93t23.5 68.5t29 50.5t27 39h57q-26 -43 -47 -96.5t-21 -104.5q0 -96 48.5 -140.5t132.5 -44.5q34 0 64 10.5t54 29t40.5 43t23.5 53.5q2 10 4 21t2 22v18z" />
    <glyph glyph-name="dadiso" unicode="&#x636;" horiz-adv-x="1165" arabic-form="isolated" 
d="M1023 72v91q0 28 -4.5 55t-19 48.5t-40 34.5t-67.5 13q-29 0 -69.5 -18t-84.5 -50.5t-88.5 -77t-81.5 -96.5h455zM492 44v267l77 25v-63v-88q98 103 185.5 152t165.5 49q57 0 91.5 -26.5t54 -67.5t26.5 -89.5t8 -93.5v-109h-531q-21 -121 -89.5 -175t-176.5 -54
q-59 0 -106.5 19t-81 49.5t-52 68t-18.5 74.5q0 54 9.5 93t23.5 68.5t29 50.5t27 39h57q-26 -43 -47 -96.5t-21 -104.5q0 -96 48.5 -140.5t132.5 -44.5q34 0 64 10.5t54 29t40.5 43t23.5 53.5q2 10 4 21t2 22v18zM692 546q0 24 16 40t39 16t38.5 -16t15.5 -40
q0 -23 -15.5 -38t-38.5 -15t-39 15t-16 38z" />
    <glyph glyph-name="tahiso" unicode="&#x637;" horiz-adv-x="812" arabic-form="isolated" 
d="M670 72v91q0 28 -4.5 55t-19 48.5t-40 34.5t-67.5 13q-29 0 -69.5 -18t-84.5 -50.5t-88.5 -77t-81.5 -96.5h455zM139 72v570l77 25v-482q98 103 185.5 152t165.5 49q57 0 91.5 -26.5t54 -67.5t26.5 -89.5t8 -93.5v-37v-72h-702v72h94z" />
    <glyph glyph-name="zadiso" unicode="&#x638;" horiz-adv-x="812" arabic-form="isolated" 
d="M670 72v91q0 28 -4.5 55t-19 48.5t-40 34.5t-67.5 13q-29 0 -69.5 -18t-84.5 -50.5t-88.5 -77t-81.5 -96.5h455zM139 72v570l77 25v-482q98 103 185.5 152t165.5 49q57 0 91.5 -26.5t54 -67.5t26.5 -89.5t8 -93.5v-37v-72h-702v72h94zM396 546q0 24 16 40t39 16t38.5 -16
t15.5 -40q0 -23 -15.5 -38t-38.5 -15t-39 15t-16 38z" />
    <glyph glyph-name="ayniso" unicode="&#x639;" horiz-adv-x="537" arabic-form="isolated" 
d="M498 119q-85 -15 -154 -39t-117.5 -52.5t-75 -61t-26.5 -64.5q0 -27 11.5 -53.5t41.5 -47.5t83 -34t136 -13q26 0 57.5 3.5t63.5 7.5l-1 -61q-91 -22 -174 -22q-40 0 -91.5 11.5t-97.5 36t-77.5 62.5t-31.5 91q0 34 16 66t41.5 60t58 51t65.5 39q-128 44 -128 157
q0 37 12 69.5t36 57t61 39t87 14.5q61 0 124 -23l2 -53q-33 12 -75.5 15.5t-79.5 -5t-62.5 -31.5t-25.5 -64q0 -66 37 -100.5t95 -34.5q34 16 87 28t102 21v-70z" />
    <glyph glyph-name="ghaiso" unicode="&#x63a;" horiz-adv-x="537" arabic-form="isolated" 
d="M498 119q-85 -15 -154 -39t-117.5 -52.5t-75 -61t-26.5 -64.5q0 -27 11.5 -53.5t41.5 -47.5t83 -34t136 -13q26 0 57.5 3.5t63.5 7.5l-1 -61q-91 -22 -174 -22q-40 0 -91.5 11.5t-97.5 36t-77.5 62.5t-31.5 91q0 34 16 66t41.5 60t58 51t65.5 39q-128 44 -128 157
q0 37 12 69.5t36 57t61 39t87 14.5q61 0 124 -23l2 -53q-33 12 -75.5 15.5t-79.5 -5t-62.5 -31.5t-25.5 -64q0 -66 37 -100.5t95 -34.5q34 16 87 28t102 21v-70zM237 546q0 24 16 40t39 16t38.5 -16t15.5 -40q0 -23 -15.5 -38t-38.5 -15t-39 15t-16 38z" />
    <glyph glyph-name="faiso" unicode="&#x641;" horiz-adv-x="874" arabic-form="isolated" 
d="M824 105q0 -105 -75 -105h-506q-42 0 -78 7t-63 23t-42 42t-15 63q0 56 10.5 96.5t25 69.5t30.5 50.5t27 40.5h70q-35 -56 -57.5 -113t-23.5 -103t24.5 -75t88.5 -29h369q-21 10 -45.5 27.5t-44.5 40t-33.5 49t-13.5 55.5q0 33 9.5 65.5t32 59t59.5 43t92 16.5
q51 0 82 -23t48 -59t23 -80t6 -87v-74zM747 94q0 73 -1.5 123.5t-10.5 82t-29.5 46t-58.5 14.5q-29 0 -48 -6.5t-30 -18.5t-15 -30t-4 -41q0 -30 14.5 -59t41 -53t62.5 -39.5t79 -18.5zM605 546q0 24 16 40t39 16t38.5 -16t15.5 -40q0 -23 -15.5 -38t-38.5 -15t-39 15
t-16 38z" />
    <glyph glyph-name="kaafiso" unicode="&#x642;" horiz-adv-x="746" arabic-form="isolated" 
d="M631 72q0 9 -0.5 18t-0.5 18q0 24 -1 51.5t-3 55.5t-4.5 56t-5.5 52q-105 -25 -151.5 -62.5t-48.5 -92.5q0 -15 3.5 -31.5t13.5 -31t26 -24t42 -9.5h130zM179 274q-25 -42 -42 -95t-17 -103q0 -31 6 -71t27 -76t60.5 -60.5t106.5 -24.5h127q12 0 41 3.5t59.5 19
t54.5 46.5t27 87h-113q-91 0 -136 40.5t-45 125.5q0 39 19 77.5t61 71.5t107.5 58t158.5 38q14 -85 23 -188t5 -223q-1 -24 -11 -63t-36 -75.5t-71.5 -63t-117.5 -26.5h-169q-46 0 -92.5 15.5t-83.5 47t-60 79t-23 112.5q0 53 7.5 91.5t19 67.5t25 50t25.5 39h57zM400 545
q0 24 16 40t39 16t38.5 -16t15.5 -40q0 -23 -15.5 -38t-38.5 -15t-39 15t-16 38zM564 545q0 24 16 40t39 16t38.5 -16t15.5 -40q0 -23 -15.5 -38t-38.5 -15t-39 15t-16 38z" />
    <glyph glyph-name="kafiso" unicode="&#x643;" horiz-adv-x="780" arabic-form="isolated" 
d="M710 0h-467q-42 0 -78 7t-63 23t-42 42t-15 63q0 56 10.5 96.5t25 69.5t30.5 50.5t27 40.5h70q-35 -56 -57.5 -113t-23.5 -103t24.5 -75t88.5 -29h393v570l77 22v-664zM286 332l68 21q-22 5 -34 27t-12 41q0 27 11 49.5t29 38.5t40.5 25.5t45.5 10.5t44 -6.5t36 -24.5
l-42 -38q-13 10 -31 13t-34.5 -1.5t-28 -16.5t-11.5 -30q0 -15 6.5 -26.5t16 -19.5t20 -12.5t19.5 -5.5l89 26v-53l-232 -69v51z" />
    <glyph glyph-name="lamiso" unicode="&#x644;" horiz-adv-x="639" arabic-form="isolated" 
d="M492 642l77 22v-632q0 -61 -19.5 -109.5t-54.5 -82t-84 -51.5t-108 -18t-106.5 19t-81 49.5t-52 68t-18.5 74.5q0 54 9.5 93t23.5 68.5t29 50.5t27 39h57q-26 -43 -47 -96.5t-21 -104.5q0 -96 48.5 -140.5t132.5 -44.5q34 0 64 10.5t54 29t40.5 43t23.5 53.5q2 10 4 21
t2 22v616z" />
    <glyph glyph-name="meemiso" unicode="&#x645;" horiz-adv-x="579" arabic-form="isolated" 
d="M463 49q-4 45 -10.5 90.5t-15.5 82t-21 59.5t-27 23q-14 0 -33.5 -21t-38.5 -48.5t-34 -54t-20 -36.5q21 -16 47 -30.5t53 -27t53 -22t47 -15.5zM437 -32q-30 12 -79.5 37t-124.5 57q-22 9 -39.5 13.5t-29.5 0.5t-18.5 -17.5t-6.5 -39.5v-249h-77v302q0 54 38 78t96 12
q28 53 57.5 97.5t56.5 76.5t49 50t36 18q24 0 44 -19.5t36.5 -49.5t28.5 -67t20 -72t11.5 -64.5t2.5 -44.5q-1 -13 -2 -29.5t-12 -36.5t-18 -32t-13.5 -18t-12.5 -8t-15 -2q-13 0 -28 7z" />
    <glyph glyph-name="nouniso" unicode="&#x646;" horiz-adv-x="651" arabic-form="isolated" 
d="M304 -151q-46 0 -92.5 15.5t-83.5 47t-60 79t-23 112.5q0 43 8.5 77t20.5 60.5t25.5 46.5t24.5 37h59q-9 -20 -20 -41t-20.5 -43t-16 -44t-6.5 -43q0 -31 6 -71.5t27 -76.5t60.5 -60.5t106.5 -24.5h17q44 0 76.5 16t54.5 44t33 65t11 79q1 65 -7.5 132.5t-23.5 131.5
l80 26q30 -141 30 -280q0 -81 -22 -135.5t-58.5 -88t-84 -47.5t-99.5 -14h-23zM266 489q0 24 16 40t39 16t38.5 -16t15.5 -40q0 -23 -15.5 -38t-38.5 -15t-39 15t-16 38z" />
    <glyph glyph-name="wawiso" unicode="&#x648;" horiz-adv-x="446" arabic-form="isolated" 
d="M147 -157q46 3 84 21q16 7 32 18.5t29.5 28t23.5 38.5t13 51h-113q-91 0 -136 40.5t-45 125.5q0 39 19 77.5t61 71.5t107.5 58t158.5 38q14 -85 23 -188t5 -223q-1 -24 -12 -60.5t-38 -71t-73 -62t-117 -33.5zM331 72q0 9 -0.5 18t-0.5 18q0 24 -1 51.5t-3 55.5t-4.5 56
t-5.5 52q-105 -25 -151.5 -62.5t-48.5 -92.5q0 -15 3.5 -31.5t13.5 -31t26 -24t42 -9.5h130z" />
    <glyph glyph-name="yaiso" unicode="&#x64a;" horiz-adv-x="651" arabic-form="isolated" 
d="M551 354q-29 0 -57.5 -10.5t-51 -31t-37 -49t-14.5 -64.5q0 -10 4.5 -22t20.5 -12h114q15 0 28 -2t22.5 -10t15 -25.5t5.5 -47.5q0 -68 -17.5 -112.5t-53.5 -70.5t-92.5 -37t-134.5 -11q-59 0 -106.5 19t-81 49t-52 67.5t-18.5 74.5q0 46 7 81.5t18 62.5t24 47.5t25 37.5
h60q-22 -41 -39 -87.5t-17 -91.5q0 -96 48.5 -140t132.5 -44q88 0 134 15t65.5 38t21 50.5t1.5 52.5q0 12 -16 12h-72q-39 0 -64.5 3t-40.5 10.5t-21 21t-6 34.5q0 39 15.5 84.5t47 84t80.5 64t117 25.5q20 0 27.5 -8.5t7.5 -20.5q0 -5 -1.5 -12.5t-4.5 -14.5t-7 -12t-10 -5
t-12.5 3.5t-14.5 3.5zM181 -283q0 24 16 40t39 16t38.5 -16t15.5 -40q0 -23 -15.5 -38t-38.5 -15t-39 15t-16 38zM345 -283q0 24 16 40t39 16t38.5 -16t15.5 -40q0 -23 -15.5 -38t-38.5 -15t-39 15t-16 38z" />
    <glyph glyph-name="alefwaslaiso" unicode="&#x671;" horiz-adv-x="230" arabic-form="isolated" 
 />
    <glyph glyph-name="piso.001" unicode="&#x67e;" horiz-adv-x="659" arabic-form="isolated" 
 />
    <glyph glyph-name="giso" unicode="&#x686;" horiz-adv-x="499" arabic-form="isolated" 
 />
    <glyph glyph-name="jehiso" unicode="&#x698;" horiz-adv-x="268" arabic-form="isolated" 
 />
    <glyph glyph-name="kehehiso" unicode="&#x6a9;" horiz-adv-x="645" arabic-form="isolated" 
 />
    <glyph glyph-name="gafiso" unicode="&#x6af;" horiz-adv-x="645" arabic-form="isolated" 
 />
    <glyph glyph-name="farsiyaiso" unicode="&#x6cc;" horiz-adv-x="764" arabic-form="isolated" 
 />
    <glyph glyph-name="alefwaslafina" unicode="&#x671;" horiz-adv-x="244" arabic-form="final" 
 />
    <glyph glyph-name="pfina" unicode="&#x67e;" horiz-adv-x="714" arabic-form="final" 
 />
    <glyph glyph-name="pini" unicode="&#x67e;" horiz-adv-x="249" arabic-form="initial" 
 />
    <glyph glyph-name="pmedi" unicode="&#x67e;" horiz-adv-x="279" arabic-form="medial" 
 />
    <glyph glyph-name="gfina" unicode="&#x686;" horiz-adv-x="532" arabic-form="final" 
 />
    <glyph glyph-name="gini" unicode="&#x686;" horiz-adv-x="510" arabic-form="initial" 
 />
    <glyph glyph-name="gmedi" unicode="&#x686;" horiz-adv-x="472" arabic-form="medial" 
 />
    <glyph glyph-name="jehfina" unicode="&#x698;" horiz-adv-x="294" arabic-form="final" 
 />
    <glyph glyph-name="kehehfina" unicode="&#x6a9;" horiz-adv-x="698" arabic-form="final" 
 />
    <glyph glyph-name="kafini" unicode="&#x6a9;" horiz-adv-x="495" arabic-form="initial" 
d="M413 0h-428v72h353v67q0 29 -18.5 68t-50.5 78t-74.5 74t-90.5 56l5 123l356 129l-23 -96l-269 -89q21 -15 43.5 -33.5t44.5 -39.5t41.5 -43t34.5 -42q32 -45 54 -91.5t22 -93.5v-67v-72z" />
    <glyph glyph-name="kafmedi" unicode="&#x6a9;" horiz-adv-x="542" arabic-form="medial" 
d="M557 0h-572v72h353v67q0 29 -18.5 68t-50.5 78t-74.5 74t-90.5 56l5 123l356 129l-23 -96l-269 -89q21 -15 43.5 -33.5t44.5 -39.5t41.5 -43t34.5 -42q32 -45 54 -91.5t22 -93.5v-67h144v-72z" />
    <glyph glyph-name="gaffina" unicode="&#x6af;" horiz-adv-x="708" arabic-form="final" 
 />
    <glyph glyph-name="gafini" unicode="&#x6af;" horiz-adv-x="431" arabic-form="initial" 
 />
    <glyph glyph-name="gafmedi" unicode="&#x6af;" horiz-adv-x="492" arabic-form="medial" 
 />
    <glyph glyph-name="alefma2sourafina" unicode="&#x6cc;" horiz-adv-x="853" arabic-form="final" 
d="M303 -151q-59 0 -106.5 19t-81 49t-52 67.5t-18.5 74.5q0 46 7 81.5t18 62.5t24 47.5t25 37.5h60q-22 -41 -39 -87.5t-17 -91.5q0 -96 48.5 -140t132.5 -44q88 0 134 15t65.5 38t21 50.5t1.5 52.5q0 12 -16 12h-72q-39 0 -64.5 3t-40.5 10.5t-21 21t-6 34.5
q0 39 15.5 84.5t47 84t80.5 64t117 25.5q45 0 78 -17t56.5 -45t38.5 -64.5t24.5 -75t14.5 -77t7 -69.5h98v-72h-177q0 82 -7.5 140.5t-20 97.5t-28.5 62t-32.5 35t-32.5 15t-28 3q-29 0 -58.5 -10.5t-53.5 -30.5t-39 -48.5t-15 -64.5q0 -10 4.5 -22t20.5 -12h114q15 0 28 -2
t22.5 -10t15 -25.5t5.5 -47.5q0 -68 -17.5 -112.5t-53.5 -70.5t-92.5 -37t-134.5 -11z" />
    <glyph glyph-name="alefmaddaabovefina" unicode="&#x622;" horiz-adv-x="248" arabic-form="final" 
d="M74 642l77 22v-592h112v-72h-189v642zM-127 783q26 -14 78.5 -19t115.5 6q17 3 36 6.5t36 6.5q88 16 144 0.5t88 -64.5q-25 14 -75 20t-113 -5q-20 -4 -41 -9t-41 -8q-83 -14 -140.5 2t-87.5 64z" />
    <glyph glyph-name="alefhamzaabovefina" unicode="&#x623;" horiz-adv-x="248" arabic-form="final" 
d="M74 642l77 22v-592h112v-72h-189v642zM-8 734l68 21q-22 5 -34 27t-12 41q0 27 11 49.5t29 38.5t40.5 25.5t45.5 10.5t44 -6t36 -25l-42 -38q-13 10 -31 13t-34.5 -1.5t-28 -16.5t-11.5 -30q0 -15 6.5 -26.5t16 -19.5t20 -12.5t19.5 -5.5l89 26v-53l-232 -69v51z" />
    <glyph glyph-name="wawhamzafina" unicode="&#x624;" horiz-adv-x="482" arabic-form="final" 
d="M409 0q-1 -24 -12 -60.5t-38 -71t-73 -62t-117 -33.5l-22 70q46 3 84 21q16 7 32 18.5t29.5 28t23.5 38.5t13 51h-113q-91 0 -136 40.5t-45 125.5q0 39 19 77.5t61 71.5t107.5 58t158.5 38q12 -72 20.5 -157t8.5 -182h87v-72h-88zM331 72q0 9 -0.5 18t-0.5 18
q0 24 -1 51.5t-3 55.5t-4.5 56t-5.5 52q-105 -25 -151.5 -62.5t-48.5 -92.5q0 -15 3.5 -31.5t13.5 -31t26 -24t42 -9.5h130zM145 483l68 21q-22 5 -34 27t-12 41q0 27 11 49.5t29 38.5t40.5 25.5t45.5 10.5t44 -6t36 -25l-42 -38q-13 10 -31 13t-34.5 -1.5t-28 -16.5
t-11.5 -30q0 -15 6.5 -26.5t16 -19.5t20 -12.5t19.5 -5.5l89 26v-53l-232 -69v51z" />
    <glyph glyph-name="alefhamzabelowfina" unicode="&#x625;" horiz-adv-x="248" arabic-form="final" 
d="M74 642l77 22v-592h112v-72h-189v642zM8 -273l68 21q-22 5 -34 27t-12 41q0 27 11 49.5t29 38.5t40.5 25.5t45.5 10.5t44 -6t36 -25l-42 -38q-13 10 -31 13t-34.5 -1.5t-28 -16.5t-11.5 -30q0 -15 6.5 -26.5t16 -19.5t20 -12.5t19.5 -5.5l89 26v-53l-232 -69v51z" />
    <glyph glyph-name="hamzakirsehfina" unicode="&#x626;" horiz-adv-x="853" arabic-form="final" 
d="M303 -151q-59 0 -106.5 19t-81 49t-52 67.5t-18.5 74.5q0 46 7 81.5t18 62.5t24 47.5t25 37.5h60q-22 -41 -39 -87.5t-17 -91.5q0 -96 48.5 -140t132.5 -44q88 0 134 15t65.5 38t21 50.5t1.5 52.5q0 12 -16 12h-72q-39 0 -64.5 3t-40.5 10.5t-21 21t-6 34.5
q0 39 15.5 84.5t47 84t80.5 64t117 25.5q45 0 78 -17t56.5 -45t38.5 -64.5t24.5 -75t14.5 -77t7 -69.5h98v-72h-177q0 82 -7.5 140.5t-20 97.5t-28.5 62t-32.5 35t-32.5 15t-28 3q-29 0 -58.5 -10.5t-53.5 -30.5t-39 -48.5t-15 -64.5q0 -10 4.5 -22t20.5 -12h114q15 0 28 -2
t22.5 -10t15 -25.5t5.5 -47.5q0 -68 -17.5 -112.5t-53.5 -70.5t-92.5 -37t-134.5 -11zM96 394l68 21q-22 5 -34 27t-12 41q0 27 11 49.5t29 38.5t40.5 25.5t45.5 10.5t44 -6t36 -25l-42 -38q-13 10 -31 13t-34.5 -1.5t-28 -16.5t-11.5 -30q0 -15 6.5 -26.5t16 -19.5
t20 -12.5t19.5 -5.5l89 26v-53l-232 -69v51z" />
    <glyph glyph-name="hamzakirsehini" unicode="&#x626;" horiz-adv-x="348" arabic-form="initial" 
d="M211 72v330l77 22v-424h-303v72h226zM88 516l68 21q-22 5 -34 27t-12 41q0 27 11 49.5t29 38.5t40.5 25.5t45.5 10.5t44 -6t36 -25l-42 -38q-13 10 -31 13t-34.5 -1.5t-28 -16.5t-11.5 -30q0 -15 6.5 -26.5t16 -19.5t20 -12.5t19.5 -5.5l89 26v-53l-232 -69v51z" />
    <glyph glyph-name="hamzakirsehmedi" unicode="&#x626;" arabic-form="medial" 
d="M173 72v330l77 22v-352h162v-72h-427v72h188zM88 516l68 21q-22 5 -34 27t-12 41q0 27 11 49.5t29 38.5t40.5 25.5t45.5 10.5t44 -6t36 -25l-42 -38q-13 10 -31 13t-34.5 -1.5t-28 -16.5t-11.5 -30q0 -15 6.5 -26.5t16 -19.5t20 -12.5t19.5 -5.5l89 26v-53l-232 -69v51z
" />
    <glyph glyph-name="aleffina" unicode="&#x627;" horiz-adv-x="248" arabic-form="final" 
d="M74 642l77 22v-592h112v-72h-189v642z" />
    <glyph glyph-name="behfina" unicode="&#x628;" horiz-adv-x="850" arabic-form="final" 
d="M865 72v-72h-93h-529q-42 0 -78 7t-63 23t-42 42t-15 63q0 56 10.5 96.5t25 69.5t30.5 50.5t27 40.5h70q-35 -56 -57.5 -113t-23.5 -103t24.5 -75t88.5 -29h455v330l77 22v-352h93zM377 -141q0 24 16 40t39 16t38.5 -16t15.5 -40q0 -23 -15.5 -38t-38.5 -15t-39 15
t-16 38z" />
    <glyph glyph-name="behini" unicode="&#x628;" horiz-adv-x="348" arabic-form="initial" 
d="M211 72v330l77 22v-424h-303v72h226zM110 -141q0 24 16 40t39 16t38.5 -16t15.5 -40q0 -23 -15.5 -38t-38.5 -15t-39 15t-16 38z" />
    <glyph glyph-name="behmedi" unicode="&#x628;" arabic-form="medial" 
d="M173 72v330l77 22v-352h162v-72h-427v72h188zM165 -141q0 24 16 40t39 16t38.5 -16t15.5 -40q0 -23 -15.5 -38t-38.5 -15t-39 15t-16 38z" />
    <glyph glyph-name="tafina" unicode="&#x62a;" horiz-adv-x="850" arabic-form="final" 
d="M865 72v-72h-93h-529q-42 0 -78 7t-63 23t-42 42t-15 63q0 56 10.5 96.5t25 69.5t30.5 50.5t27 40.5h70q-35 -56 -57.5 -113t-23.5 -103t24.5 -75t88.5 -29h455v330l77 22v-352h93zM310 545q0 24 16 40t39 16t38.5 -16t15.5 -40q0 -23 -15.5 -38t-38.5 -15t-39 15t-16 38
zM474 545q0 24 16 40t39 16t38.5 -16t15.5 -40q0 -23 -15.5 -38t-38.5 -15t-39 15t-16 38z" />
    <glyph glyph-name="taini" unicode="&#x62a;" horiz-adv-x="348" arabic-form="initial" 
d="M211 72v330l77 22v-424h-303v72h226zM33 545q0 24 16 40t39 16t38.5 -16t15.5 -40q0 -23 -15.5 -38t-38.5 -15t-39 15t-16 38zM197 545q0 24 16 40t39 16t38.5 -16t15.5 -40q0 -23 -15.5 -38t-38.5 -15t-39 15t-16 38z" />
    <glyph glyph-name="tamedi" unicode="&#x62a;" arabic-form="medial" 
d="M173 72v330l77 22v-352h162v-72h-427v72h188zM76 545q0 24 16 40t39 16t38.5 -16t15.5 -40q0 -23 -15.5 -38t-38.5 -15t-39 15t-16 38zM240 545q0 24 16 40t39 16t38.5 -16t15.5 -40q0 -23 -15.5 -38t-38.5 -15t-39 15t-16 38z" />
    <glyph glyph-name="thafina" unicode="&#x62b;" horiz-adv-x="850" arabic-form="final" 
d="M865 72v-72h-93h-529q-42 0 -78 7t-63 23t-42 42t-15 63q0 56 10.5 96.5t25 69.5t30.5 50.5t27 40.5h70q-35 -56 -57.5 -113t-23.5 -103t24.5 -75t88.5 -29h455v330l77 22v-352h93zM307 546q0 24 16 40t39 16t38.5 -16t15.5 -40q0 -23 -15.5 -38t-38.5 -15t-39 15t-16 38
zM471 546q0 24 16 40t39 16t38.5 -16t15.5 -40q0 -23 -15.5 -38t-38.5 -15t-39 15t-16 38zM387 682q0 24 16 40t39 16t38.5 -16t15.5 -40q0 -23 -15.5 -38t-38.5 -15t-39 15t-16 38z" />
    <glyph glyph-name="thaini" unicode="&#x62b;" horiz-adv-x="348" arabic-form="initial" 
d="M211 72v330l77 22v-424h-303v72h226zM37 546q0 24 16 40t39 16t38.5 -16t15.5 -40q0 -23 -15.5 -38t-38.5 -15t-39 15t-16 38zM201 546q0 24 16 40t39 16t38.5 -16t15.5 -40q0 -23 -15.5 -38t-38.5 -15t-39 15t-16 38zM117 682q0 24 16 40t39 16t38.5 -16t15.5 -40
q0 -23 -15.5 -38t-38.5 -15t-39 15t-16 38z" />
    <glyph glyph-name="thamedi" unicode="&#x62b;" arabic-form="medial" 
d="M173 72v330l77 22v-352h162v-72h-427v72h188zM73 546q0 24 16 40t39 16t38.5 -16t15.5 -40q0 -23 -15.5 -38t-38.5 -15t-39 15t-16 38zM237 546q0 24 16 40t39 16t38.5 -16t15.5 -40q0 -23 -15.5 -38t-38.5 -15t-39 15t-16 38zM153 682q0 24 16 40t39 16t38.5 -16
t15.5 -40q0 -23 -15.5 -38t-38.5 -15t-39 15t-16 38z" />
    <glyph glyph-name="jeemfina" unicode="&#x62c;" horiz-adv-x="667" arabic-form="final" 
d="M603 218q-42 2 -83.5 -2t-79.5 -14q1 -27 12 -50.5t28.5 -41t39.5 -28t45 -10.5h117v-72h-130q-41 0 -73 17.5t-54 44.5t-33 59t-9 62q-55 -21 -101 -50.5t-79.5 -65t-52.5 -73.5t-19 -75q0 -44 20.5 -74.5t57.5 -49.5t89 -28t115 -9q28 0 58 2t62 6l-1 -60
q-89 -24 -172 -24q-57 0 -112.5 13.5t-100 39.5t-72 64t-27.5 88q0 63 26.5 123t77 111.5t122.5 91t164 62.5q-14 4 -39 15t-55 22.5t-62 20.5t-60 9q-13 0 -29 -4.5t-32.5 -13t-32.5 -21t-29 -28.5l-54 46q16 19 38 37.5t47.5 33t52.5 23.5t53 9q29 0 73 -18.5t104 -38.5
q57 -19 101.5 -28t88.5 -10v-111zM277 -67q0 24 16 40t39 16t38.5 -16t15.5 -40q0 -23 -15.5 -38t-38.5 -15t-39 15t-16 38z" />
    <glyph glyph-name="jeemini" unicode="&#x62c;" horiz-adv-x="681" arabic-form="initial" 
d="M631 0h-645l-1 72h502q-29 59 -56 108.5t-52.5 85.5t-51 56.5t-52.5 20.5q-26 0 -53 -21t-53 -53l-51 46q19 21 39.5 40.5t43.5 35t48.5 24.5t55.5 9q33 0 61 -20.5t56 -59.5t60.5 -96t74.5 -130q14 -24 33 -35t41 -11v-72zM251 -141q0 24 16 40t39 16t38.5 -16t15.5 -40
q0 -23 -15.5 -38t-38.5 -15t-39 15t-16 38z" />
    <glyph glyph-name="jeemmedi" unicode="&#x62c;" horiz-adv-x="656" arabic-form="medial" 
d="M671 0h-685l-1 72h502q-29 59 -56 108.5t-52.5 85.5t-51 56.5t-52.5 20.5q-26 0 -53 -21t-53 -53l-51 46q19 21 39.5 40.5t43.5 35t48.5 24.5t55.5 9q33 0 61 -20.5t56 -59.5t60.5 -96t74.5 -130q14 -24 33 -35t41 -11h40v-72zM250 -141q0 24 16 40t39 16t38.5 -16
t15.5 -40q0 -23 -15.5 -38t-38.5 -15t-39 15t-16 38z" />
    <glyph glyph-name="haafina" unicode="&#x62d;" horiz-adv-x="667" arabic-form="final" 
d="M603 218q-42 2 -83.5 -2t-79.5 -14q1 -27 12 -50.5t28.5 -41t39.5 -28t45 -10.5h117v-72h-130q-41 0 -73 17.5t-54 44.5t-33 59t-9 62q-55 -21 -101 -50.5t-79.5 -65t-52.5 -73.5t-19 -75q0 -44 20.5 -74.5t57.5 -49.5t89 -28t115 -9q28 0 58 2t62 6l-1 -60
q-89 -24 -172 -24q-57 0 -112.5 13.5t-100 39.5t-72 64t-27.5 88q0 63 26.5 123t77 111.5t122.5 91t164 62.5q-14 4 -39 15t-55 22.5t-62 20.5t-60 9q-13 0 -29 -4.5t-32.5 -13t-32.5 -21t-29 -28.5l-54 46q16 19 38 37.5t47.5 33t52.5 23.5t53 9q29 0 73 -18.5t104 -38.5
q57 -19 101.5 -28t88.5 -10v-111z" />
    <glyph glyph-name="haaini" unicode="&#x62d;" horiz-adv-x="681" arabic-form="initial" 
d="M631 0h-645l-1 72h502q-29 59 -56 108.5t-52.5 85.5t-51 56.5t-52.5 20.5q-26 0 -53 -21t-53 -53l-51 46q19 21 39.5 40.5t43.5 35t48.5 24.5t55.5 9q33 0 61 -20.5t56 -59.5t60.5 -96t74.5 -130q14 -24 33 -35t41 -11v-72z" />
    <glyph glyph-name="haamedi" unicode="&#x62d;" horiz-adv-x="656" arabic-form="medial" 
d="M671 0h-685l-1 72h502q-29 59 -56 108.5t-52.5 85.5t-51 56.5t-52.5 20.5q-26 0 -53 -21t-53 -53l-51 46q19 21 39.5 40.5t43.5 35t48.5 24.5t55.5 9q33 0 61 -20.5t56 -59.5t60.5 -96t74.5 -130q14 -24 33 -35t41 -11h40v-72z" />
    <glyph glyph-name="khafina" unicode="&#x62e;" horiz-adv-x="667" arabic-form="final" 
d="M603 218q-42 2 -83.5 -2t-79.5 -14q1 -27 12 -50.5t28.5 -41t39.5 -28t45 -10.5h117v-72h-130q-41 0 -73 17.5t-54 44.5t-33 59t-9 62q-55 -21 -101 -50.5t-79.5 -65t-52.5 -73.5t-19 -75q0 -44 20.5 -74.5t57.5 -49.5t89 -28t115 -9q28 0 58 2t62 6l-1 -60
q-89 -24 -172 -24q-57 0 -112.5 13.5t-100 39.5t-72 64t-27.5 88q0 63 26.5 123t77 111.5t122.5 91t164 62.5q-14 4 -39 15t-55 22.5t-62 20.5t-60 9q-13 0 -29 -4.5t-32.5 -13t-32.5 -21t-29 -28.5l-54 46q16 19 38 37.5t47.5 33t52.5 23.5t53 9q29 0 73 -18.5t104 -38.5
q57 -19 101.5 -28t88.5 -10v-111zM271 546q0 24 16 40t39 16t38.5 -16t15.5 -40q0 -23 -15.5 -38t-38.5 -15t-39 15t-16 38z" />
    <glyph glyph-name="khaini" unicode="&#x62e;" horiz-adv-x="681" arabic-form="initial" 
d="M631 0h-645l-1 72h502q-29 59 -56 108.5t-52.5 85.5t-51 56.5t-52.5 20.5q-26 0 -53 -21t-53 -53l-51 46q19 21 39.5 40.5t43.5 35t48.5 24.5t55.5 9q33 0 61 -20.5t56 -59.5t60.5 -96t74.5 -130q14 -24 33 -35t41 -11v-72zM226 546q0 24 16 40t39 16t38.5 -16t15.5 -40
q0 -23 -15.5 -38t-38.5 -15t-39 15t-16 38z" />
    <glyph glyph-name="khamedi" unicode="&#x62e;" horiz-adv-x="656" arabic-form="medial" 
d="M671 0h-685l-1 72h502q-29 59 -56 108.5t-52.5 85.5t-51 56.5t-52.5 20.5q-26 0 -53 -21t-53 -53l-51 46q19 21 39.5 40.5t43.5 35t48.5 24.5t55.5 9q33 0 61 -20.5t56 -59.5t60.5 -96t74.5 -130q14 -24 33 -35t41 -11h40v-72zM226 546q0 24 16 40t39 16t38.5 -16
t15.5 -40q0 -23 -15.5 -38t-38.5 -15t-39 15t-16 38z" />
    <glyph glyph-name="dalfina" unicode="&#x62f;" horiz-adv-x="568" arabic-form="final" 
d="M55 87q11 -4 24 -8q11 -3 26 -5t33 -2h241q1 29 -6.5 69t-28.5 82t-58 80.5t-96 64.5l23 84q62 -24 115 -73q22 -21 44.5 -50t42 -66.5t34.5 -85t22 -105.5h112v-72h-454q-18 0 -32 2.5t-25 5.5q-12 4 -22 8z" />
    <glyph glyph-name="zalfina" unicode="&#x630;" horiz-adv-x="568" arabic-form="final" 
d="M55 87q11 -4 24 -8q11 -3 26 -5t33 -2h241q1 29 -6.5 69t-28.5 82t-58 80.5t-96 64.5l23 84q62 -24 115 -73q22 -21 44.5 -50t42 -66.5t34.5 -85t22 -105.5h112v-72h-454q-18 0 -32 2.5t-25 5.5q-12 4 -22 8zM167 546q0 24 16 40t39 16t38.5 -16t15.5 -40
q0 -23 -15.5 -38t-38.5 -15t-39 15t-16 38z" />
    <glyph glyph-name="rafina" unicode="&#x631;" horiz-adv-x="340" arabic-form="final" 
d="M213 429q7 -43 13 -90.5t9.5 -95t6 -91.5t3.5 -80h110v-72h-110q-2 -26 -13.5 -63.5t-40 -73.5t-78.5 -62t-129 -29l-19 57q56 9 101 33q19 10 37 24.5t32 34.5t23 46t9 59q0 90 -5 189t-28 190z" />
    <glyph glyph-name="zafina" unicode="&#x632;" horiz-adv-x="340" arabic-form="final" 
d="M213 429q7 -43 13 -90.5t9.5 -95t6 -91.5t3.5 -80h110v-72h-110q-2 -26 -13.5 -63.5t-40 -73.5t-78.5 -62t-129 -29l-19 57q56 9 101 33q19 10 37 24.5t32 34.5t23 46t9 59q0 90 -5 189t-28 190zM88 546q0 24 16 40t39 16t38.5 -16t15.5 -40q0 -23 -15.5 -38t-38.5 -15
t-39 15t-16 38z" />
    <glyph glyph-name="seenfina" unicode="&#x633;" horiz-adv-x="1152" arabic-form="final" 
d="M191 233q-26 -43 -47 -96.5t-21 -104.5q0 -96 48.5 -140.5t132.5 -44.5q34 0 64 10.5t54 29t40.5 43t23.5 53.5q2 10 4 21t2 22v376l77 22v-352h150v330l77 22v-352h151v330l77 22v-352h143v-72h-598q-21 -121 -89.5 -175t-176.5 -54q-59 0 -106.5 19t-81 49.5t-52 68
t-18.5 74.5q0 54 9.5 93t23.5 68.5t29 50.5t27 39h57z" />
    <glyph glyph-name="seenini" unicode="&#x633;" horiz-adv-x="733" arabic-form="initial" 
d="M145 72v330l77 22v-352h150v330l77 22v-352h151v330l77 22v-424h-692v72h160z" />
    <glyph glyph-name="seenmedi" unicode="&#x633;" horiz-adv-x="805" arabic-form="medial" 
d="M145 72v330l77 22v-352h150v330l77 22v-352h151v330l77 22v-352h143v-72h-835v72h160z" />
    <glyph glyph-name="sheenfina" unicode="&#x634;" horiz-adv-x="1152" arabic-form="final" 
d="M191 233q-26 -43 -47 -96.5t-21 -104.5q0 -96 48.5 -140.5t132.5 -44.5q34 0 64 10.5t54 29t40.5 43t23.5 53.5q2 10 4 21t2 22v376l77 22v-352h150v330l77 22v-352h151v330l77 22v-352h143v-72h-598q-21 -121 -89.5 -175t-176.5 -54q-59 0 -106.5 19t-81 49.5t-52 68
t-18.5 74.5q0 54 9.5 93t23.5 68.5t29 50.5t27 39h57zM621 546q0 24 16 40t39 16t38.5 -16t15.5 -40q0 -23 -15.5 -38t-38.5 -15t-39 15t-16 38zM785 546q0 24 16 40t39 16t38.5 -16t15.5 -40q0 -23 -15.5 -38t-38.5 -15t-39 15t-16 38zM701 682q0 24 16 40t39 16t38.5 -16
t15.5 -40q0 -23 -15.5 -38t-38.5 -15t-39 15t-16 38z" />
    <glyph glyph-name="sheenini" unicode="&#x634;" horiz-adv-x="733" arabic-form="initial" 
d="M145 72v330l77 22v-352h150v330l77 22v-352h151v330l77 22v-424h-692v72h160zM275 546q0 24 16 40t39 16t38.5 -16t15.5 -40q0 -23 -15.5 -38t-38.5 -15t-39 15t-16 38zM439 546q0 24 16 40t39 16t38.5 -16t15.5 -40q0 -23 -15.5 -38t-38.5 -15t-39 15t-16 38zM355 682
q0 24 16 40t39 16t38.5 -16t15.5 -40q0 -23 -15.5 -38t-38.5 -15t-39 15t-16 38z" />
    <glyph glyph-name="sheenmedi" unicode="&#x634;" horiz-adv-x="805" arabic-form="medial" 
d="M145 72v330l77 22v-352h150v330l77 22v-352h151v330l77 22v-352h143v-72h-835v72h160zM288 546q0 24 16 40t39 16t38.5 -16t15.5 -40q0 -23 -15.5 -38t-38.5 -15t-39 15t-16 38zM452 546q0 24 16 40t39 16t38.5 -16t15.5 -40q0 -23 -15.5 -38t-38.5 -15t-39 15t-16 38z
M368 682q0 24 16 40t39 16t38.5 -16t15.5 -40q0 -23 -15.5 -38t-38.5 -15t-39 15t-16 38z" />
    <glyph glyph-name="sadfina" unicode="&#x635;" horiz-adv-x="1170" arabic-form="final" 
d="M1023 72v91q0 28 -4.5 55t-19 48.5t-40 34.5t-67.5 13q-29 0 -69.5 -18t-84.5 -50.5t-88.5 -77t-81.5 -96.5h455zM1099 72h86v-72h-616q-21 -121 -89.5 -175t-176.5 -54q-59 0 -106.5 19t-81 49.5t-52 68t-18.5 74.5q0 54 9.5 93t23.5 68.5t29 50.5t27 39h57
q-26 -43 -47 -96.5t-21 -104.5q0 -96 48.5 -140.5t132.5 -44.5q34 0 64 10.5t54 29t40.5 43t23.5 53.5q2 10 4 21t2 22v18v267l77 25v-63v-88q98 103 185.5 152t165.5 49q57 0 91.5 -26.5t54 -67.5t26.5 -89.5t8 -93.5z" />
    <glyph glyph-name="sadini" unicode="&#x635;" horiz-adv-x="752" arabic-form="initial" 
d="M610 72v91q0 28 -4.5 55t-19 48.5t-40 34.5t-67.5 13q-29 0 -69.5 -18t-84.5 -50.5t-88.5 -77t-81.5 -96.5h455zM79 72v239l77 25v-151q98 103 185.5 152t165.5 49q57 0 91.5 -26.5t54 -67.5t26.5 -89.5t8 -93.5v-109h-702v72h94z" />
    <glyph glyph-name="sadmedi" unicode="&#x635;" horiz-adv-x="759" arabic-form="medial" 
d="M610 72v91q0 28 -4.5 55t-19 48.5t-40 34.5t-67.5 13q-29 0 -69.5 -18t-84.5 -50.5t-88.5 -77t-81.5 -96.5h455zM79 72v239l77 25v-151q98 103 185.5 152t165.5 49q57 0 91.5 -26.5t54 -67.5t26.5 -89.5t8 -93.5v-37h87v-72h-789v72h94z" />
    <glyph glyph-name="dadfina" unicode="&#x636;" horiz-adv-x="1170" arabic-form="final" 
d="M1023 72v91q0 28 -4.5 55t-19 48.5t-40 34.5t-67.5 13q-29 0 -69.5 -18t-84.5 -50.5t-88.5 -77t-81.5 -96.5h455zM1099 72h86v-72h-616q-21 -121 -89.5 -175t-176.5 -54q-59 0 -106.5 19t-81 49.5t-52 68t-18.5 74.5q0 54 9.5 93t23.5 68.5t29 50.5t27 39h57
q-26 -43 -47 -96.5t-21 -104.5q0 -96 48.5 -140.5t132.5 -44.5q34 0 64 10.5t54 29t40.5 43t23.5 53.5q2 10 4 21t2 22v18v267l77 25v-63v-88q98 103 185.5 152t165.5 49q57 0 91.5 -26.5t54 -67.5t26.5 -89.5t8 -93.5zM787 546q0 24 16 40t39 16t38.5 -16t15.5 -40
q0 -23 -15.5 -38t-38.5 -15t-39 15t-16 38z" />
    <glyph glyph-name="dadini" unicode="&#x636;" horiz-adv-x="752" arabic-form="initial" 
d="M610 72v91q0 28 -4.5 55t-19 48.5t-40 34.5t-67.5 13q-29 0 -69.5 -18t-84.5 -50.5t-88.5 -77t-81.5 -96.5h455zM79 72v239l77 25v-151q98 103 185.5 152t165.5 49q57 0 91.5 -26.5t54 -67.5t26.5 -89.5t8 -93.5v-109h-702v72h94zM353 546q0 24 16 40t39 16t38.5 -16
t15.5 -40q0 -23 -15.5 -38t-38.5 -15t-39 15t-16 38z" />
    <glyph glyph-name="dadmedi" unicode="&#x636;" horiz-adv-x="759" arabic-form="medial" 
d="M610 72v91q0 28 -4.5 55t-19 48.5t-40 34.5t-67.5 13q-29 0 -69.5 -18t-84.5 -50.5t-88.5 -77t-81.5 -96.5h455zM79 72v239l77 25v-151q98 103 185.5 152t165.5 49q57 0 91.5 -26.5t54 -67.5t26.5 -89.5t8 -93.5v-37h87v-72h-789v72h94zM332 546q0 24 16 40t39 16
t38.5 -16t15.5 -40q0 -23 -15.5 -38t-38.5 -15t-39 15t-16 38z" />
    <glyph glyph-name="tahfina" unicode="&#x637;" horiz-adv-x="894" arabic-form="final" 
d="M745 72v91q0 28 -4.5 55t-19 48.5t-40 34.5t-67.5 13q-29 0 -69.5 -18t-84.5 -50.5t-88.5 -77t-81.5 -96.5h455zM214 72v570l77 25v-482q98 103 185.5 152t165.5 49q57 0 91.5 -26.5t54 -67.5t26.5 -89.5t8 -93.5v-37h87v-72h-782l-13 72h100z" />
    <glyph glyph-name="tahini" unicode="&#x637;" horiz-adv-x="752" arabic-form="initial" 
d="M610 72v91q0 28 -4.5 55t-19 48.5t-40 34.5t-67.5 13q-29 0 -69.5 -18t-84.5 -50.5t-88.5 -77t-81.5 -96.5h455zM79 72v570l77 25v-482q98 103 185.5 152t165.5 49q57 0 91.5 -26.5t54 -67.5t26.5 -89.5t8 -93.5v-37v-72h-702v72h94z" />
    <glyph glyph-name="tahmedi" unicode="&#x637;" horiz-adv-x="759" arabic-form="medial" 
d="M610 72v91q0 28 -4.5 55t-19 48.5t-40 34.5t-67.5 13q-29 0 -69.5 -18t-84.5 -50.5t-88.5 -77t-81.5 -96.5h455zM79 72v570l77 25v-482q98 103 185.5 152t165.5 49q57 0 91.5 -26.5t54 -67.5t26.5 -89.5t8 -93.5v-37h87v-72h-789v72h94z" />
    <glyph glyph-name="zadfina" unicode="&#x638;" horiz-adv-x="894" arabic-form="final" 
d="M745 72v91q0 28 -4.5 55t-19 48.5t-40 34.5t-67.5 13q-29 0 -69.5 -18t-84.5 -50.5t-88.5 -77t-81.5 -96.5h455zM214 72v570l77 25v-482q98 103 185.5 152t165.5 49q57 0 91.5 -26.5t54 -67.5t26.5 -89.5t8 -93.5v-37h87v-72h-782l-13 72h100zM496 546q0 24 16 40t39 16
t38.5 -16t15.5 -40q0 -23 -15.5 -38t-38.5 -15t-39 15t-16 38z" />
    <glyph glyph-name="zadini" unicode="&#x638;" horiz-adv-x="752" arabic-form="initial" 
d="M610 72v91q0 28 -4.5 55t-19 48.5t-40 34.5t-67.5 13q-29 0 -69.5 -18t-84.5 -50.5t-88.5 -77t-81.5 -96.5h455zM79 72v570l77 25v-482q98 103 185.5 152t165.5 49q57 0 91.5 -26.5t54 -67.5t26.5 -89.5t8 -93.5v-37v-72h-702v72h94zM327 546q0 24 16 40t39 16t38.5 -16
t15.5 -40q0 -23 -15.5 -38t-38.5 -15t-39 15t-16 38z" />
    <glyph glyph-name="zadmedi" unicode="&#x638;" horiz-adv-x="759" arabic-form="medial" 
d="M610 72v91q0 28 -4.5 55t-19 48.5t-40 34.5t-67.5 13q-29 0 -69.5 -18t-84.5 -50.5t-88.5 -77t-81.5 -96.5h455zM79 72v570l77 25v-482q98 103 185.5 152t165.5 49q57 0 91.5 -26.5t54 -67.5t26.5 -89.5t8 -93.5v-37h87v-72h-789v72h94zM328 546q0 24 16 40t39 16
t38.5 -16t15.5 -40q0 -23 -15.5 -38t-38.5 -15t-39 15t-16 38z" />
    <glyph glyph-name="aynfina" unicode="&#x639;" horiz-adv-x="600" arabic-form="final" 
d="M467 275q-11 13 -27 26t-37.5 23.5t-47 17.5t-55.5 7q-31 0 -56 -7.5t-45 -18.5t-34.5 -24.5t-23.5 -25.5l159 -201zM495 -299q-42 -9 -82 -14t-77 -5q-49 0 -102 11.5t-96.5 36t-71.5 62.5t-28 91q0 31 10 60t31 53.5t52.5 44t74.5 31.5l-158 200q30 39 58 67t58 46
t63 26.5t73 8.5t72.5 -8t62.5 -25.5t59 -45t61 -66.5l-159 -203h219v-72h-235q-23 0 -45.5 8t-36.5 22q-49 -14 -83 -26.5t-55.5 -29t-31.5 -38.5t-10 -56q0 -23 11.5 -45.5t41.5 -40.5t83 -29t136 -11q23 0 50.5 2.5t55.5 6.5z" />
    <glyph glyph-name="aynini" unicode="&#x639;" horiz-adv-x="598" arabic-form="initial" 
d="M-15 72h191q-25 42 -33.5 87t-8.5 87q0 81 59.5 127.5t164.5 49.5q42 2 95 -5t101 -16v-75q-15 4 -37.5 9t-49 9t-55 6.5t-55.5 2.5t-52 -6t-44.5 -19.5t-31 -34t-11.5 -48.5q0 -27 5.5 -54t13.5 -50.5t17.5 -42t17.5 -27.5h286v-72h-573v72z" />
    <glyph glyph-name="aynmidi" unicode="&#x639;" horiz-adv-x="588" arabic-form="medial" 
d="M360 0q-32 0 -48 5t-24 28q-13 -23 -29.5 -28t-48.5 -5h-225v72h210l-159 200q30 39 58 67t58 46t63 26.5t73 8.5t72.5 -8t62.5 -25.5t59 -45t61 -66.5l-159 -203h219v-72h-243zM455 275q-11 13 -27 26t-37.5 23.5t-47 17.5t-55.5 7q-31 0 -56 -7.5t-45 -18.5
t-34.5 -24.5t-23.5 -25.5l159 -201z" />
    <glyph glyph-name="ghafina" unicode="&#x63a;" horiz-adv-x="600" arabic-form="final" 
d="M467 275q-11 13 -27 26t-37.5 23.5t-47 17.5t-55.5 7q-31 0 -56 -7.5t-45 -18.5t-34.5 -24.5t-23.5 -25.5l159 -201zM495 -299q-42 -9 -82 -14t-77 -5q-49 0 -102 11.5t-96.5 36t-71.5 62.5t-28 91q0 31 10 60t31 53.5t52.5 44t74.5 31.5l-158 200q30 39 58 67t58 46
t63 26.5t73 8.5t72.5 -8t62.5 -25.5t59 -45t61 -66.5l-159 -203h219v-72h-235q-23 0 -45.5 8t-36.5 22q-49 -14 -83 -26.5t-55.5 -29t-31.5 -38.5t-10 -56q0 -23 11.5 -45.5t41.5 -40.5t83 -29t136 -11q23 0 50.5 2.5t55.5 6.5zM245 546q0 24 16 40t39 16t38.5 -16t15.5 -40
q0 -23 -15.5 -38t-38.5 -15t-39 15t-16 38z" />
    <glyph glyph-name="ghaini" unicode="&#x63a;" horiz-adv-x="598" arabic-form="initial" 
d="M-15 72h191q-25 42 -33.5 87t-8.5 87q0 81 59.5 127.5t164.5 49.5q42 2 95 -5t101 -16v-75q-15 4 -37.5 9t-49 9t-55 6.5t-55.5 2.5t-52 -6t-44.5 -19.5t-31 -34t-11.5 -48.5q0 -27 5.5 -54t13.5 -50.5t17.5 -42t17.5 -27.5h286v-72h-573v72zM302 546q0 24 16 40t39 16
t38.5 -16t15.5 -40q0 -23 -15.5 -38t-38.5 -15t-39 15t-16 38z" />
    <glyph glyph-name="ghamedi" unicode="&#x63a;" horiz-adv-x="588" arabic-form="medial" 
d="M360 0q-32 0 -48 5t-24 28q-13 -23 -29.5 -28t-48.5 -5h-225v72h210l-159 200q30 39 58 67t58 46t63 26.5t73 8.5t72.5 -8t62.5 -25.5t59 -45t61 -66.5l-159 -203h219v-72h-243zM455 275q-11 13 -27 26t-37.5 23.5t-47 17.5t-55.5 7q-31 0 -56 -7.5t-45 -18.5
t-34.5 -24.5t-23.5 -25.5l159 -201zM233 546q0 24 16 40t39 16t38.5 -16t15.5 -40q0 -23 -15.5 -38t-38.5 -15t-39 15t-16 38z" />
    <glyph glyph-name="fafina" unicode="&#x641;" horiz-adv-x="881" arabic-form="final" 
d="M896 72v-72h-653q-42 0 -78 7t-63 23t-42 42t-15 63q0 56 10.5 96.5t25 69.5t30.5 50.5t27 40.5h70q-35 -56 -57.5 -113t-23.5 -103t24.5 -75t88.5 -29h369q-21 10 -45.5 27.5t-44.5 40t-33.5 49t-13.5 55.5q0 33 9.5 65.5t32 59t59.5 43t92 16.5q51 0 82 -23t48 -59
t23 -80t6 -87v-74q0 -9 -0.5 -17t-1.5 -16h74zM747 94q0 73 -1.5 123.5t-10.5 82t-29.5 46t-58.5 14.5q-29 0 -48 -6.5t-30 -18.5t-15 -30t-4 -41q0 -30 14.5 -59t41 -53t62.5 -39.5t79 -18.5zM612 546q0 24 16 40t39 16t38.5 -16t15.5 -40q0 -23 -15.5 -38t-38.5 -15
t-39 15t-16 38z" />
    <glyph glyph-name="faini" unicode="&#x641;" horiz-adv-x="487" arabic-form="initial" 
d="M445 105q0 -105 -75 -105h-385v72h245q-21 10 -45.5 27.5t-44.5 40t-33.5 49t-13.5 55.5q0 33 9.5 65.5t32 59t59.5 43t92 16.5q51 0 82 -23t48 -59t23 -80t6 -87v-74zM368 94q0 73 -1.5 123.5t-10.5 82t-29.5 46t-58.5 14.5q-29 0 -48 -6.5t-30 -18.5t-15 -30t-4 -41
q0 -30 14.5 -59t41 -53t62.5 -39.5t79 -18.5zM208 546q0 24 16 40t39 16t38.5 -16t15.5 -40q0 -23 -15.5 -38t-38.5 -15t-39 15t-16 38z" />
    <glyph glyph-name="famedi" unicode="&#x641;" horiz-adv-x="565" arabic-form="medial" 
d="M261 361q-36 0 -60.5 -8.5t-40 -23t-22.5 -33t-7 -37.5q0 -59 30 -107t100 -68q71 19 103 67t32 108q0 18 -7 36t-22.5 33t-41.5 24t-64 9zM-15 0v72h172q-56 35 -79 80t-23 86q0 42 13.5 77t39.5 60.5t65 39.5t89 14q52 0 91.5 -14t66 -39.5t40 -60.5t13.5 -77
q0 -20 -6 -43.5t-18.5 -46t-31.5 -42.5t-45 -34h208v-72h-595zM206 546q0 24 16 40t39 16t38.5 -16t15.5 -40q0 -23 -15.5 -38t-38.5 -15t-39 15t-16 38z" />
    <glyph glyph-name="kaaffina" unicode="&#x642;" horiz-adv-x="783" arabic-form="final" 
d="M631 72q0 9 -0.5 18t-0.5 18q0 24 -1 51.5t-3 55.5t-4.5 56t-5.5 52q-105 -25 -151.5 -62.5t-48.5 -92.5q0 -15 3.5 -31.5t13.5 -31t26 -24t42 -9.5h130zM709 0q-1 -24 -11 -63t-36 -75.5t-71.5 -63t-117.5 -26.5h-169q-46 0 -92.5 15.5t-83.5 47t-60 79t-23 112.5
q0 53 7.5 91.5t19 67.5t25 50t25.5 39h57q-25 -42 -42 -95t-17 -103q0 -31 6 -71t27 -76t60.5 -60.5t106.5 -24.5h127q12 0 41 3.5t59.5 19t54.5 46.5t27 87h-113q-91 0 -136 40.5t-45 125.5q0 39 19 77.5t61 71.5t107.5 58t158.5 38q12 -72 20.5 -156.5t8.5 -182.5h88v-72
h-89zM412 545q0 24 16 40t39 16t38.5 -16t15.5 -40q0 -23 -15.5 -38t-38.5 -15t-39 15t-16 38zM576 545q0 24 16 40t39 16t38.5 -16t15.5 -40q0 -23 -15.5 -38t-38.5 -15t-39 15t-16 38z" />
    <glyph glyph-name="kaafini" unicode="&#x642;" horiz-adv-x="487" arabic-form="initial" 
d="M445 105q0 -105 -75 -105h-385v72h245q-21 10 -45.5 27.5t-44.5 40t-33.5 49t-13.5 55.5q0 33 9.5 65.5t32 59t59.5 43t92 16.5q51 0 82 -23t48 -59t23 -80t6 -87v-74zM368 94q0 73 -1.5 123.5t-10.5 82t-29.5 46t-58.5 14.5q-29 0 -48 -6.5t-30 -18.5t-15 -30t-4 -41
q0 -30 14.5 -59t41 -53t62.5 -39.5t79 -18.5zM132 545q0 24 16 40t39 16t38.5 -16t15.5 -40q0 -23 -15.5 -38t-38.5 -15t-39 15t-16 38zM296 545q0 24 16 40t39 16t38.5 -16t15.5 -40q0 -23 -15.5 -38t-38.5 -15t-39 15t-16 38z" />
    <glyph glyph-name="kaafmedi" unicode="&#x642;" horiz-adv-x="565" arabic-form="medial" 
d="M261 361q-36 0 -60.5 -8.5t-40 -23t-22.5 -33t-7 -37.5q0 -59 30 -107t100 -68q71 19 103 67t32 108q0 18 -7 36t-22.5 33t-41.5 24t-64 9zM-15 0v72h172q-56 35 -79 80t-23 86q0 42 13.5 77t39.5 60.5t65 39.5t89 14q52 0 91.5 -14t66 -39.5t40 -60.5t13.5 -77
q0 -20 -6 -43.5t-18.5 -46t-31.5 -42.5t-45 -34h208v-72h-595zM132 545q0 24 16 40t39 16t38.5 -16t15.5 -40q0 -23 -15.5 -38t-38.5 -15t-39 15t-16 38zM296 545q0 24 16 40t39 16t38.5 -16t15.5 -40q0 -23 -15.5 -38t-38.5 -15t-39 15t-16 38z" />
    <glyph glyph-name="kaffina" unicode="&#x643;" horiz-adv-x="788" arabic-form="final" 
d="M803 72v-72h-560q-42 0 -78 7t-63 23t-42 42t-15 63q0 56 10.5 96.5t25 69.5t30.5 50.5t27 40.5h70q-35 -56 -57.5 -113t-23.5 -103t24.5 -75t88.5 -29h393v570l77 22v-592h93zM286 332l68 21q-22 5 -34 27t-12 41q0 27 11 49.5t29 38.5t40.5 25.5t45.5 10.5t44 -6.5
t36 -24.5l-42 -38q-13 10 -31 13t-34.5 -1.5t-28 -16.5t-11.5 -30q0 -15 6.5 -26.5t16 -19.5t20 -12.5t19.5 -5.5l89 26v-53l-232 -69v51z" />
    <glyph glyph-name="lamfina" unicode="&#x644;" horiz-adv-x="655" arabic-form="final" 
d="M568 0q-5 -54 -26.5 -96.5t-56.5 -72t-81 -45t-101 -15.5q-59 0 -106.5 19t-81 49.5t-52 68t-18.5 74.5q0 54 9.5 93t23.5 68.5t29 50.5t27 39h57q-26 -43 -47 -96.5t-21 -104.5q0 -96 48.5 -140.5t132.5 -44.5q34 0 64 10.5t54 29t40.5 43t23.5 53.5q2 10 4 21t2 22v616
l77 22v-592h101v-72h-102z" />
    <glyph glyph-name="lamini" unicode="&#x644;" horiz-adv-x="251" arabic-form="initial" 
d="M118 72v570l77 22v-664h-210v72h133z" />
    <glyph glyph-name="lammedi" unicode="&#x644;" horiz-adv-x="312" arabic-form="medial" 
d="M195 72h132v-72h-132h-210v72h133v570l77 22v-592z" />
    <glyph glyph-name="meemfina" unicode="&#x645;" horiz-adv-x="625" arabic-form="final" 
d="M463 49q-4 45 -10.5 90.5t-15.5 82t-21 59.5t-27 23q-14 0 -33.5 -21t-38.5 -48.5t-34 -54t-20 -36.5q21 -16 47 -30.5t53 -27t53 -22t47 -15.5zM233 62q-22 9 -39.5 13.5t-29.5 0.5t-18.5 -17.5t-6.5 -39.5v-249h-77v302q0 54 38 78t96 12q28 53 57.5 97.5t56.5 76.5
t49 50t36 18q24 0 44 -19.5t36.5 -49.5t28.5 -67t20 -72t11.5 -64.5t2.5 -44.5q0 -3 -0.5 -7t-0.5 -8h103v-72h-127q-14 -26 -23.5 -32.5t-24.5 -6.5q-13 0 -28 7q-30 12 -79.5 37t-124.5 57z" />
    <glyph glyph-name="meemini" unicode="&#x645;" horiz-adv-x="491" arabic-form="initial" 
d="M450 87q-1 -13 -2 -29.5t-12 -36.5t-18 -32t-13.5 -18t-12.5 -8t-15 -2q-13 0 -28 7q-30 12 -80.5 34.5t-123.5 59.5q-17 -38 -41 -50t-66 -12h-53v72h79q30 69 66 129.5t69.5 105.5t62 71t45.5 26q24 0 44 -19.5t36.5 -49.5t28.5 -67t20 -72t11.5 -64.5t2.5 -44.5z
M375 49q-4 45 -10.5 90.5t-15.5 82t-21 59.5t-27 23q-14 0 -33.5 -21t-38.5 -48.5t-34 -54t-20 -36.5q21 -16 47 -30.5t53 -27t53 -22t47 -15.5z" />
    <glyph glyph-name="meemmedi" unicode="&#x645;" horiz-adv-x="537" arabic-form="medial" 
d="M425 0q-14 -26 -23.5 -32.5t-24.5 -6.5q-13 0 -28 7q-30 12 -80.5 34.5t-123.5 59.5q-17 -38 -41 -50t-66 -12h-53v72h79q30 69 66 129.5t69.5 105.5t62 71t45.5 26q24 0 44 -19.5t36.5 -49.5t28.5 -67t20 -72t11.5 -64.5t2.5 -44.5q0 -3 -0.5 -7t-0.5 -8h103v-72h-127z
M375 49q-4 45 -10.5 90.5t-15.5 82t-21 59.5t-27 23q-14 0 -33.5 -21t-38.5 -48.5t-34 -54t-20 -36.5q21 -16 47 -30.5t53 -27t53 -22t47 -15.5z" />
    <glyph glyph-name="nounfina" unicode="&#x646;" horiz-adv-x="655" arabic-form="final" 
d="M570 0q-15 -42 -40.5 -71t-57.5 -46.5t-69 -25.5t-76 -8h-23q-46 0 -92.5 15.5t-83.5 47t-60 79t-23 112.5q0 43 8.5 77t20.5 60.5t25.5 46.5t24.5 37h59q-9 -20 -20 -41t-20.5 -43t-16 -44t-6.5 -43q0 -31 6 -71.5t27 -76.5t60.5 -60.5t106.5 -24.5h17q44 0 76.5 16
t54.5 44t33 65t11 79q1 65 -7.5 132.5t-23.5 131.5l80 26q30 -141 30 -280q0 -17 -1 -32.5t-3 -29.5h83v-72h-100zM266 489q0 24 16 40t39 16t38.5 -16t15.5 -40q0 -23 -15.5 -38t-38.5 -15t-39 15t-16 38z" />
    <glyph glyph-name="nounini" unicode="&#x646;" horiz-adv-x="348" arabic-form="initial" 
d="M211 72v330l77 22v-424h-303v72h226zM95 546q0 24 16 40t39 16t38.5 -16t15.5 -40q0 -23 -15.5 -38t-38.5 -15t-39 15t-16 38z" />
    <glyph glyph-name="nounmedi" unicode="&#x646;" arabic-form="medial" 
d="M173 72v330l77 22v-352h162v-72h-427v72h188zM156 546q0 24 16 40t39 16t38.5 -16t15.5 -40q0 -23 -15.5 -38t-38.5 -15t-39 15t-16 38z" />
    <glyph glyph-name="haiso" unicode="&#x647;" horiz-adv-x="420" arabic-form="isolated" 
d="M328 165q0 21 -8.5 47.5t-24.5 52t-39.5 46t-52.5 29.5q-21 -12 -40.5 -32.5t-35 -45t-25 -52t-9.5 -53.5q0 -40 23.5 -66.5t80.5 -26.5q39 0 64 10.5t40 26t21 33t6 31.5zM402 162q0 -44 -20.5 -75.5t-51.5 -52t-67 -30t-66 -9.5q-46 0 -79 11t-54.5 29t-31.5 42.5
t-10 51.5q0 31 7 64.5t22 66t37.5 61t52.5 51.5l-44 19l31 47q73 -14 125 -41.5t85 -64t48.5 -80.5t15.5 -90z" />
    <glyph glyph-name="hafina" unicode="&#x647;" horiz-adv-x="588" arabic-form="final" 
d="M74 182q0 40 22 78t69 69.5t120 54.5t174 34v-346h144v-72h-180q-11 7 -18.5 15.5t-12.5 15.5q-5 8 -8 16q-5 -13 -20 -24q-13 -9 -37.5 -16t-66.5 -7q-96 0 -141 48.5t-45 133.5zM160 181q0 -35 8.5 -56.5t21.5 -33t29.5 -15.5t32.5 -4h130v259q-61 -11 -103.5 -27
t-68.5 -35.5t-38 -41.5t-12 -46z" />
    <glyph glyph-name="haini" unicode="&#x647;" horiz-adv-x="633" arabic-form="initial" 
d="M284 173q0 59 -20.5 95t-48.5 36q-30 0 -46 -29.5t-16 -71.5q0 -21 3.5 -42.5t11.5 -39t22 -29t35 -11.5q33 0 46 27t13 65zM563 0h-578v72h149q-15 11 -24.5 27t-15 34.5t-8 37.5t-2.5 35q0 23 8.5 47t24 44.5t36 35t44.5 18.5q-60 0 -90 17.5t-37 69.5q38 -11 96 -20.5
t148 -17.5q81 -10 130 -26t75.5 -47.5t35 -82.5t8.5 -131v-113zM486 72q0 87 -9.5 137t-31 76.5t-56.5 35.5t-86 15q24 -22 37 -59t15 -76t-7.5 -74.5t-30.5 -54.5h169z" />
    <glyph glyph-name="hamedi" unicode="&#x647;" horiz-adv-x="646" arabic-form="medial" 
d="M284 173q0 59 -20.5 95t-48.5 36q-30 0 -46 -29.5t-16 -71.5q0 -21 3.5 -42.5t11.5 -39t22 -29t35 -11.5q33 0 46 27t13 65zM563 0h-578v72h149q-15 11 -24.5 27t-15 34.5t-8 37.5t-2.5 35q0 23 8.5 47t24 44.5t36 35t44.5 18.5q-60 0 -90 17.5t-37 69.5q38 -11 96 -20.5
t148 -17.5q81 -10 130 -26t75.5 -47.5t35 -82.5t8.5 -131v-41h98v-72h-98zM486 72q0 87 -9.5 137t-31 76.5t-56.5 35.5t-86 15q24 -22 37 -59t15 -76t-7.5 -74.5t-30.5 -54.5h169z" />
    <glyph glyph-name="wawfina" unicode="&#x648;" horiz-adv-x="482" arabic-form="final" 
d="M409 0q-1 -24 -12 -60.5t-38 -71t-73 -62t-117 -33.5l-22 70q46 3 84 21q16 7 32 18.5t29.5 28t23.5 38.5t13 51h-113q-91 0 -136 40.5t-45 125.5q0 39 19 77.5t61 71.5t107.5 58t158.5 38q12 -72 20.5 -157t8.5 -182h87v-72h-88zM331 72q0 9 -0.5 18t-0.5 18
q0 24 -1 51.5t-3 55.5t-4.5 56t-5.5 52q-105 -25 -151.5 -62.5t-48.5 -92.5q0 -15 3.5 -31.5t13.5 -31t26 -24t42 -9.5h130z" />
    <glyph glyph-name="yaini" unicode="&#x6cc;" horiz-adv-x="348" arabic-form="initial" 
d="M211 72v330l77 22v-424h-303v72h226zM11 -142q0 24 16 40t39 16t38.5 -16t15.5 -40q0 -23 -15.5 -38t-38.5 -15t-39 15t-16 38zM175 -142q0 24 16 40t39 16t38.5 -16t15.5 -40q0 -23 -15.5 -38t-38.5 -15t-39 15t-16 38z" />
    <glyph glyph-name="yamedi" unicode="&#x6cc;" arabic-form="medial" 
d="M173 72v330l77 22v-352h162v-72h-427v72h188zM71 -142q0 24 16 40t39 16t38.5 -16t15.5 -40q0 -23 -15.5 -38t-38.5 -15t-39 15t-16 38zM235 -142q0 24 16 40t39 16t38.5 -16t15.5 -40q0 -23 -15.5 -38t-38.5 -15t-39 15t-16 38z" />
    <glyph glyph-name="tehmarboutaiso" unicode="&#x629;" horiz-adv-x="420" arabic-form="isolated" 
d="M328 165q0 21 -8.5 47.5t-24.5 52t-39.5 46t-52.5 29.5q-21 -12 -40.5 -32.5t-35 -45t-25 -52t-9.5 -53.5q0 -40 23.5 -66.5t80.5 -26.5q39 0 64 10.5t40 26t21 33t6 31.5zM402 162q0 -44 -20.5 -75.5t-51.5 -52t-67 -30t-66 -9.5q-46 0 -79 11t-54.5 29t-31.5 42.5
t-10 51.5q0 31 7 64.5t22 66t37.5 61t52.5 51.5l-44 19l31 47q73 -14 125 -41.5t85 -64t48.5 -80.5t15.5 -90zM49 545q0 24 16 40t39 16t38.5 -16t15.5 -40q0 -23 -15.5 -38t-38.5 -15t-39 15t-16 38zM213 545q0 24 16 40t39 16t38.5 -16t15.5 -40q0 -23 -15.5 -38
t-38.5 -15t-39 15t-16 38z" />
    <glyph glyph-name="alefma2souraiso" unicode="&#x649;" horiz-adv-x="651" arabic-form="isolated" 
d="M551 354q-29 0 -57.5 -10.5t-51 -31t-37 -49t-14.5 -64.5q0 -10 4.5 -22t20.5 -12h114q15 0 28 -2t22.5 -10t15 -25.5t5.5 -47.5q0 -68 -17.5 -112.5t-53.5 -70.5t-92.5 -37t-134.5 -11q-59 0 -106.5 19t-81 49t-52 67.5t-18.5 74.5q0 46 7 81.5t18 62.5t24 47.5t25 37.5
h60q-22 -41 -39 -87.5t-17 -91.5q0 -96 48.5 -140t132.5 -44q88 0 134 15t65.5 38t21 50.5t1.5 52.5q0 12 -16 12h-72q-39 0 -64.5 3t-40.5 10.5t-21 21t-6 34.5q0 39 15.5 84.5t47 84t80.5 64t117 25.5q20 0 27.5 -8.5t7.5 -20.5q0 -5 -1.5 -12.5t-4.5 -14.5t-7 -12t-10 -5
t-12.5 3.5t-14.5 3.5z" />
    <glyph glyph-name="kirsehini" unicode="&#x649;" horiz-adv-x="348" arabic-form="initial" 
d="M211 72v330l77 22v-424h-303v72h226z" />
    <glyph glyph-name="kirsehmedi" unicode="&#x649;" arabic-form="medial" 
d="M173 72v330l77 22v-352h162v-72h-427v72h188z" />
    <glyph glyph-name="tehmarboutafina" unicode="&#x629;" horiz-adv-x="588" arabic-form="final" 
d="M74 182q0 40 22 78t69 69.5t120 54.5t174 34v-346h144v-72h-180q-11 7 -18.5 15.5t-12.5 15.5q-5 8 -8 16q-5 -13 -20 -24q-13 -9 -37.5 -16t-66.5 -7q-96 0 -141 48.5t-45 133.5zM160 181q0 -35 8.5 -56.5t21.5 -33t29.5 -15.5t32.5 -4h130v259q-61 -11 -103.5 -27
t-68.5 -35.5t-38 -41.5t-12 -46zM157 546q0 24 16 40t39 16t38.5 -16t15.5 -40q0 -23 -15.5 -38t-38.5 -15t-39 15t-16 38zM321 546q0 24 16 40t39 16t38.5 -16t15.5 -40q0 -23 -15.5 -38t-38.5 -15t-39 15t-16 38z" />
    <glyph glyph-name="yafina" unicode="&#x64a;" horiz-adv-x="853" arabic-form="final" 
d="M303 -151q-59 0 -106.5 19t-81 49t-52 67.5t-18.5 74.5q0 46 7 81.5t18 62.5t24 47.5t25 37.5h60q-22 -41 -39 -87.5t-17 -91.5q0 -96 48.5 -140t132.5 -44q88 0 134 15t65.5 38t21 50.5t1.5 52.5q0 12 -16 12h-72q-39 0 -64.5 3t-40.5 10.5t-21 21t-6 34.5
q0 39 15.5 84.5t47 84t80.5 64t117 25.5q45 0 78 -17t56.5 -45t38.5 -64.5t24.5 -75t14.5 -77t7 -69.5h98v-72h-177q0 82 -7.5 140.5t-20 97.5t-28.5 62t-32.5 35t-32.5 15t-28 3q-29 0 -58.5 -10.5t-53.5 -30.5t-39 -48.5t-15 -64.5q0 -10 4.5 -22t20.5 -12h114q15 0 28 -2
t22.5 -10t15 -25.5t5.5 -47.5q0 -68 -17.5 -112.5t-53.5 -70.5t-92.5 -37t-134.5 -11zM195 -283q0 24 16 40t39 16t38.5 -16t15.5 -40q0 -23 -15.5 -38t-38.5 -15t-39 15t-16 38zM359 -283q0 24 16 40t39 16t38.5 -16t15.5 -40q0 -23 -15.5 -38t-38.5 -15t-39 15t-16 38z
" />
    <glyph glyph-name="vehiso" unicode="&#x6a4;" horiz-adv-x="874" arabic-form="isolated" 
d="M824 105q0 -105 -75 -105h-506q-42 0 -78 7t-63 23t-42 42t-15 63q0 56 10.5 96.5t25 69.5t30.5 50.5t27 40.5h70q-35 -56 -57.5 -113t-23.5 -103t24.5 -75t88.5 -29h369q-21 10 -45.5 27.5t-44.5 40t-33.5 49t-13.5 55.5q0 33 9.5 65.5t32 59t59.5 43t92 16.5
q51 0 82 -23t48 -59t23 -80t6 -87v-74zM747 94q0 73 -1.5 123.5t-10.5 82t-29.5 46t-58.5 14.5q-29 0 -48 -6.5t-30 -18.5t-15 -30t-4 -41q0 -30 14.5 -59t41 -53t62.5 -39.5t79 -18.5zM493 546q0 24 16 40t39 16t38.5 -16t15.5 -40q0 -23 -15.5 -38t-38.5 -15t-39 15
t-16 38zM657 546q0 24 16 40t39 16t38.5 -16t15.5 -40q0 -23 -15.5 -38t-38.5 -15t-39 15t-16 38zM573 682q0 24 16 40t39 16t38.5 -16t15.5 -40q0 -23 -15.5 -38t-38.5 -15t-39 15t-16 38z" />
    <glyph glyph-name="vehfina" unicode="&#x6a4;" horiz-adv-x="881" arabic-form="final" 
d="M896 72v-72h-653q-42 0 -78 7t-63 23t-42 42t-15 63q0 56 10.5 96.5t25 69.5t30.5 50.5t27 40.5h70q-35 -56 -57.5 -113t-23.5 -103t24.5 -75t88.5 -29h369q-21 10 -45.5 27.5t-44.5 40t-33.5 49t-13.5 55.5q0 33 9.5 65.5t32 59t59.5 43t92 16.5q51 0 82 -23t48 -59
t23 -80t6 -87v-74q0 -9 -0.5 -17t-1.5 -16h74zM747 94q0 73 -1.5 123.5t-10.5 82t-29.5 46t-58.5 14.5q-29 0 -48 -6.5t-30 -18.5t-15 -30t-4 -41q0 -30 14.5 -59t41 -53t62.5 -39.5t79 -18.5zM519 546q0 24 16 40t39 16t38.5 -16t15.5 -40q0 -23 -15.5 -38t-38.5 -15
t-39 15t-16 38zM683 546q0 24 16 40t39 16t38.5 -16t15.5 -40q0 -23 -15.5 -38t-38.5 -15t-39 15t-16 38zM599 682q0 24 16 40t39 16t38.5 -16t15.5 -40q0 -23 -15.5 -38t-38.5 -15t-39 15t-16 38z" />
    <glyph glyph-name="vehini" unicode="&#x6a4;" horiz-adv-x="487" arabic-form="initial" 
d="M445 105q0 -105 -75 -105h-385v72h245q-21 10 -45.5 27.5t-44.5 40t-33.5 49t-13.5 55.5q0 33 9.5 65.5t32 59t59.5 43t92 16.5q51 0 82 -23t48 -59t23 -80t6 -87v-74zM368 94q0 73 -1.5 123.5t-10.5 82t-29.5 46t-58.5 14.5q-29 0 -48 -6.5t-30 -18.5t-15 -30t-4 -41
q0 -30 14.5 -59t41 -53t62.5 -39.5t79 -18.5zM111 546q0 24 16 40t39 16t38.5 -16t15.5 -40q0 -23 -15.5 -38t-38.5 -15t-39 15t-16 38zM275 546q0 24 16 40t39 16t38.5 -16t15.5 -40q0 -23 -15.5 -38t-38.5 -15t-39 15t-16 38zM191 682q0 24 16 40t39 16t38.5 -16t15.5 -40
q0 -23 -15.5 -38t-38.5 -15t-39 15t-16 38z" />
    <glyph glyph-name="vehmedi" unicode="&#x6a4;" horiz-adv-x="565" arabic-form="medial" 
d="M261 361q-36 0 -60.5 -8.5t-40 -23t-22.5 -33t-7 -37.5q0 -59 30 -107t100 -68q71 19 103 67t32 108q0 18 -7 36t-22.5 33t-41.5 24t-64 9zM-15 0v72h172q-56 35 -79 80t-23 86q0 42 13.5 77t39.5 60.5t65 39.5t89 14q52 0 91.5 -14t66 -39.5t40 -60.5t13.5 -77
q0 -20 -6 -43.5t-18.5 -46t-31.5 -42.5t-45 -34h208v-72h-595zM131 546q0 24 16 40t39 16t38.5 -16t15.5 -40q0 -23 -15.5 -38t-38.5 -15t-39 15t-16 38zM295 546q0 24 16 40t39 16t38.5 -16t15.5 -40q0 -23 -15.5 -38t-38.5 -15t-39 15t-16 38zM211 682q0 24 16 40t39 16
t38.5 -16t15.5 -40q0 -23 -15.5 -38t-38.5 -15t-39 15t-16 38z" />
    <glyph glyph-name=".notdef" horiz-adv-x="500" 
d="M62 0v562h375v-562h-375zM125 62h250v438h-250v-438z" />
    <glyph glyph-name="NULL" horiz-adv-x="0" 
 />
    <glyph glyph-name="nonmarkingreturn" horiz-adv-x="256" 
 />
    <glyph glyph-name="space" unicode=" " horiz-adv-x="256" 
 />
    <glyph glyph-name="space" unicode="&#xa0;" horiz-adv-x="256" 
 />
    <glyph glyph-name="exclam" unicode="!" horiz-adv-x="172" 
d="M66 175l-17 319l-1 169h78l1 -169l-18 -319h-43zM37 51q0 24 16 40t39 16t38.5 -16t15.5 -40q0 -23 -15.5 -38t-38.5 -15t-39 15t-16 38z" />
    <glyph glyph-name="comma" unicode="," horiz-adv-x="246" 
d="M116 111q30 0 49.5 -27.5t19.5 -69.5q0 -59 -33 -102q-9 -11 -21.5 -22t-29.5 -23l-12 21l19.5 19.5t15.5 16.5q20 29 20 49q0 21 -41 30q-18 5 -29.5 20t-11.5 35q0 23 15.5 38t38.5 15z" />
    <glyph glyph-name="period" unicode="." horiz-adv-x="211" 
d="M51 51q0 24 16 40t39 16t38.5 -16t15.5 -40q0 -23 -15.5 -38t-38.5 -15t-39 15t-16 38z" />
    <glyph glyph-name="slash" unicode="/" horiz-adv-x="498" 
d="M137 0h-90l337 666h87z" />
    <glyph glyph-name="colon" unicode=":" horiz-adv-x="211" 
d="M51 51q0 24 16 40t39 16t38.5 -16t15.5 -40q0 -23 -15.5 -38t-38.5 -15t-39 15t-16 38zM51 330q0 24 16 40t39 16t38.5 -16t15.5 -40q0 -23 -15.5 -38t-38.5 -15t-39 15t-16 38z" />
    <glyph glyph-name="semicolon" unicode=";" horiz-adv-x="239" 
d="M116 111q30 0 49.5 -27.5t19.5 -69.5q0 -59 -33 -102q-9 -11 -21.5 -22t-29.5 -23l-12 21l19.5 19.5t15.5 16.5q20 29 20 49q0 21 -41 30q-18 5 -29.5 20t-11.5 35q0 23 15.5 38t38.5 15zM51 330q0 24 16 40t39 16t38.5 -16t15.5 -40q0 -23 -15.5 -38t-38.5 -15t-39 15
t-16 38z" />
    <glyph glyph-name="equal" unicode="=" horiz-adv-x="507" 
d="M62 147v72h393v-72h-393zM62 295v72h393v-72h-393z" />
    <glyph glyph-name="guillemotleft" unicode="&#xab;" horiz-adv-x="466" 
d="M317 153l-117 179l117 173h120l-124 -174l122 -178h-118zM139 153l-118 179l118 173h119l-123 -174l122 -178h-118z" />
    <glyph glyph-name="guillemotright" unicode="&#xbb;" horiz-adv-x="466" 
d="M330 153h-117l122 176l-122 176h117l117 -176zM153 153h-118l121 176l-121 176h118l117 -176z" />
    <glyph glyph-name="divide" unicode="&#xf7;" horiz-adv-x="531" 
d="M70 220v72h407v-72h-407zM213 50q0 24 16 40t39 16t38.5 -16t15.5 -40q0 -23 -15.5 -38t-38.5 -15t-39 15t-16 38zM213 435q0 24 16 40t39 16t38.5 -16t15.5 -40q0 -23 -15.5 -38t-38.5 -15t-39 15t-16 38z" />
    <glyph glyph-name="arabiccoma" unicode="&#x60c;" horiz-adv-x="221" 
d="M131 -2q-30 0 -49.5 27.5t-19.5 69.5q0 58 33 102q9 11 21.5 22t29.5 23l12 -21l-19.5 -19.5t-15.5 -16.5q-20 -29 -20 -49q0 -21 41 -30q18 -5 29.5 -20t11.5 -35q0 -23 -15.5 -38t-38.5 -15z" />
    <glyph glyph-name="arabicsemicolon" unicode="&#x61b;" horiz-adv-x="199" 
d="M51 51q0 24 16 40t39 16t38.5 -16t15.5 -40q0 -23 -15.5 -38t-38.5 -15t-39 15t-16 38zM109 243q-30 0 -49.5 27.5t-19.5 69.5q0 58 33 102q9 11 21.5 22t29.5 23l12 -21l-19.5 -19.5t-15.5 -16.5q-20 -29 -20 -49q0 -21 41 -30q18 -5 29.5 -20t11.5 -35q0 -23 -15.5 -38
t-38.5 -15z" />
    <glyph glyph-name="arabicquestionmark" unicode="&#x61f;" horiz-adv-x="478" 
d="M220 175q0 26 -1 43t-5 29.5t-12.5 22t-23.5 20.5q-47 33 -74 56t-41 42.5t-18 38.5t-4 43q0 42 14.5 77t43.5 60.5t74 40t105 14.5q50 0 84 -8t67 -31l-30 -66q-18 10 -33.5 17t-30.5 10.5t-30 5t-32 1.5q-26 0 -53 -5.5t-50 -19t-37.5 -37.5t-14.5 -60q0 -12 2.5 -22
t12 -23t28.5 -30.5t52 -44.5q23 -18 39 -33t26 -33t14.5 -43.5t4.5 -64.5h-77zM204 51q0 24 16 40t39 16t38.5 -16t15.5 -40q0 -23 -15.5 -38t-38.5 -15t-39 15t-16 38z" />
    <glyph glyph-name="tatweel" unicode="&#x640;" horiz-adv-x="279" 
d="M-15 72h309v-72h-309v72z" />
    <glyph glyph-name="fathatan" unicode="&#x64b;" horiz-adv-x="265" 
d="M38 736l203 57v-45l-203 -57v45zM38 819l203 57v-45l-203 -57v45z" />
    <glyph glyph-name="damatan" unicode="&#x64c;" horiz-adv-x="260" 
d="M184 811q-5 20 -11.5 34.5t-14.5 14.5q-7 -2 -11 -7.5t-6 -12.5q-3 -8 -4 -17q0 -9 6 -13.5t15 -4.5q6 0 12.5 2t13.5 4zM36 727q9 12 26 20.5t31 8.5q10 0 22 -7.5t19 -21.5q16 7 28.5 18.5t18.5 27.5q-6 -1 -16 -2.5t-20 -1.5q-18 0 -30.5 7.5t-12.5 32.5q0 18 6 34.5
t15.5 29t21 20t22.5 7.5t20.5 -8t16 -20.5t10.5 -28.5t4 -32q0 -30 -7.5 -51.5t-20.5 -36.5t-32 -25.5t-41 -19.5q-8 26 -16.5 34.5t-19.5 8.5q-10 0 -24 -9.5t-22 -17.5z" />
    <glyph glyph-name="kasratan" unicode="&#x64d;" horiz-adv-x="301" 
d="M46 -186l203 57v-45l-203 -57v45zM46 -103l203 57v-45l-203 -57v45z" />
    <glyph glyph-name="fatha" unicode="&#x64e;" horiz-adv-x="265" 
d="M38 736l203 57v-45l-203 -57v45z" />
    <glyph glyph-name="damma" unicode="&#x64f;" horiz-adv-x="218" 
d="M61 721q23 8 46.5 20t32.5 35q-8 -1 -20.5 -3t-25 -0.5t-22.5 8t-11 22.5q-2 19 3.5 37t14.5 31.5t21 22t24 9.5q9 1 18 -5t16.5 -16.5t12.5 -24t6 -27.5q2 -39 -6.5 -64t-25 -41.5t-38.5 -26.5t-46 -19v42zM142 814q-4 20 -11 35t-15 14q-9 -2 -14 -14.5t-6 -18.5
q-2 -19 13.5 -21t32.5 5z" />
    <glyph glyph-name="kasra" unicode="&#x650;" horiz-adv-x="289" 
d="M46 -103l203 57v-45l-203 -57v45z" />
    <glyph glyph-name="shaddah" unicode="&#x651;" horiz-adv-x="255" 
d="M66 783q0 -8 -0.5 -18t1 -20t6.5 -16.5t15 -6.5q14 0 20.5 11t6.5 26v32l41 11v-30q0 -14 5 -22.5t16 -8.5q13 0 19.5 9.5t6.5 25.5v34l41 11v-39q0 -45 -19 -65.5t-44 -20.5q-11 0 -25 3.5t-21 11.5q-19 -32 -49 -32q-31 0 -42.5 21t-11.5 44v29z" />
    <glyph glyph-name="soukoun" unicode="&#x652;" horiz-adv-x="221" 
d="M114 723q23 0 29.5 9.5t6.5 20.5q0 19 -9 33.5t-27 14.5q-17 0 -26.5 -14.5t-9.5 -33.5q0 -11 6 -20.5t30 -9.5zM113 688q-22 0 -36 6t-22.5 15t-12 20.5t-3.5 23.5q0 14 4.5 28.5t14 26t23.5 19t33 7.5t33 -7.5t23.5 -19t14 -26t4.5 -28.5q0 -12 -3.5 -24t-12 -21
t-23 -14.5t-37.5 -5.5z" />
    <glyph glyph-name="zeroarabic" unicode="&#x660;" horiz-adv-x="506" 
d="M256 671q58 0 99.5 -17.5t68 -57.5t38.5 -105t12 -161q0 -95 -15 -160t-43 -105.5t-68.5 -58t-91.5 -17.5q-45 0 -85.5 13t-70.5 50.5t-47.5 104.5t-17.5 175q0 94 12 159t38.5 105t68.5 57.5t102 17.5zM256 599q-42 0 -68.5 -12t-41.5 -42.5t-20.5 -82.5t-5.5 -132
q0 -87 7 -139t23 -80t42 -37t64 -9q39 0 64 11.5t40 41t21 81t6 131.5q0 87 -6 140t-21 81.5t-40 38t-64 9.5z" />
    <glyph glyph-name="zeroarabic" unicode="&#x6f0;" horiz-adv-x="506" 
d="M256 671q58 0 99.5 -17.5t68 -57.5t38.5 -105t12 -161q0 -95 -15 -160t-43 -105.5t-68.5 -58t-91.5 -17.5q-45 0 -85.5 13t-70.5 50.5t-47.5 104.5t-17.5 175q0 94 12 159t38.5 105t68.5 57.5t102 17.5zM256 599q-42 0 -68.5 -12t-41.5 -42.5t-20.5 -82.5t-5.5 -132
q0 -87 7 -139t23 -80t42 -37t64 -9q39 0 64 11.5t40 41t21 81t6 131.5q0 87 -6 140t-21 81.5t-40 38t-64 9.5z" />
    <glyph glyph-name="onearabic" unicode="&#x661;" horiz-adv-x="293" 
d="M25 522q41 24 78 59t57 77l3 5h63v-663h-77v524q-26 -25 -58 -48t-66 -40v86z" />
    <glyph glyph-name="onearabic" unicode="&#x6f1;" horiz-adv-x="293" 
d="M25 522q41 24 78 59t57 77l3 5h63v-663h-77v524q-26 -25 -58 -48t-66 -40v86z" />
    <glyph glyph-name="twoarabic" unicode="&#x662;" horiz-adv-x="489" 
d="M41 468q0 40 12.5 75.5t37.5 62t62 42t86 15.5t86.5 -14.5t63 -40t38 -59.5t12.5 -73q0 -36 -8.5 -62.5t-28.5 -52t-53 -56.5t-81 -76q-17 -16 -33.5 -31.5t-32 -33.5t-30.5 -40t-29 -52h311v-72h-419q7 33 19 65.5t32.5 66.5t51 71t74.5 79q22 21 47 40.5t46 40.5
t34.5 46t13.5 57q0 24 -5 46.5t-18 40t-36 28t-59 10.5q-20 0 -41 -7t-38 -22t-27.5 -38.5t-10.5 -55.5h-77z" />
    <glyph glyph-name="twoarabic" unicode="&#x6f2;" horiz-adv-x="489" 
d="M41 468q0 40 12.5 75.5t37.5 62t62 42t86 15.5t86.5 -14.5t63 -40t38 -59.5t12.5 -73q0 -36 -8.5 -62.5t-28.5 -52t-53 -56.5t-81 -76q-17 -16 -33.5 -31.5t-32 -33.5t-30.5 -40t-29 -52h311v-72h-419q7 33 19 65.5t32.5 66.5t51 71t74.5 79q22 21 47 40.5t46 40.5
t34.5 46t13.5 57q0 24 -5 46.5t-18 40t-36 28t-59 10.5q-20 0 -41 -7t-38 -22t-27.5 -38.5t-10.5 -55.5h-77z" />
    <glyph glyph-name="threearabic" unicode="&#x663;" horiz-adv-x="473" 
d="M28 501q9 47 29.5 79.5t47.5 52t58 28t61 8.5q88 0 135 -46t47 -123q0 -48 -20.5 -83.5t-78.5 -56.5q63 -13 95.5 -49t32.5 -102q0 -49 -16 -88.5t-43.5 -68t-65.5 -44t-81 -15.5q-86 0 -137.5 46.5t-64.5 137.5h77q5 -21 12 -40t20.5 -34t35 -24t56.5 -9q38 0 62.5 12
t38.5 32.5t19 46.5t5 54q0 27 -11 47.5t-28.5 34.5t-38.5 21t-42 7h-43l-2 72h4q26 0 50 7t42 20t29 30t11 38q0 18 -4 36.5t-15.5 32.5t-31.5 23t-52 9q-29 0 -49 -7.5t-33.5 -20.5t-21 -29.5t-12.5 -34.5h-77z" />
    <glyph glyph-name="threearabic" unicode="&#x6f3;" horiz-adv-x="473" 
d="M28 501q9 47 29.5 79.5t47.5 52t58 28t61 8.5q88 0 135 -46t47 -123q0 -48 -20.5 -83.5t-78.5 -56.5q63 -13 95.5 -49t32.5 -102q0 -49 -16 -88.5t-43.5 -68t-65.5 -44t-81 -15.5q-86 0 -137.5 46.5t-64.5 137.5h77q5 -21 12 -40t20.5 -34t35 -24t56.5 -9q38 0 62.5 12
t38.5 32.5t19 46.5t5 54q0 27 -11 47.5t-28.5 34.5t-38.5 21t-42 7h-43l-2 72h4q26 0 50 7t42 20t29 30t11 38q0 18 -4 36.5t-15.5 32.5t-31.5 23t-52 9q-29 0 -49 -7.5t-33.5 -20.5t-21 -29.5t-12.5 -34.5h-77z" />
    <glyph glyph-name="sevenarabic" unicode="&#x667;" horiz-adv-x="466" 
d="M438 663l1 -72q-40 -46 -81.5 -116t-77 -150.5t-59 -165t-27.5 -159.5h-81q4 72 25 152t53.5 158t74 150.5t86.5 130.5h-327v72h413z" />
    <glyph glyph-name="sevenarabic" unicode="&#x6f7;" horiz-adv-x="466" 
d="M438 663l1 -72q-40 -46 -81.5 -116t-77 -150.5t-59 -165t-27.5 -159.5h-81q4 72 25 152t53.5 158t74 150.5t86.5 130.5h-327v72h413z" />
    <glyph glyph-name="eightarabic" unicode="&#x668;" horiz-adv-x="468" 
d="M115 353q-21 16 -36.5 29.5t-26 28t-15.5 32t-5 41.5q0 41 11.5 74.5t35.5 57.5t62 37.5t91 13.5q103 0 152.5 -50.5t49.5 -132.5q0 -26 -5.5 -44.5t-16.5 -33t-26.5 -27.5t-35.5 -26q31 -12 49.5 -30t28.5 -39.5t13 -46t3 -48.5q0 -51 -17.5 -87t-46 -59t-65.5 -34
t-77 -13q-41 -2 -80 9.5t-69.5 35.5t-49.5 61t-19 87q0 21 3 44t13 45t28.5 41.5t50.5 33.5zM114 487q0 -28 11 -48t28 -32.5t38 -18.5t41 -6q19 0 40 6t37.5 18.5t27.5 32.5t11 48q0 37 -10.5 58.5t-27.5 32.5t-37.5 14.5t-39.5 3.5q-20 0 -41 -2.5t-38.5 -13t-28.5 -32.5
t-11 -61zM105 202q0 -39 12 -65t31 -41t42 -21t45 -6t44 6.5t40 21.5t29 40.5t11 63.5q0 34 -11.5 56.5t-29.5 36.5t-40.5 20t-44.5 6q-26 0 -49 -7t-40.5 -22t-28 -37t-10.5 -52z" />
    <glyph glyph-name="eightarabic" unicode="&#x6f8;" horiz-adv-x="468" 
d="M115 353q-21 16 -36.5 29.5t-26 28t-15.5 32t-5 41.5q0 41 11.5 74.5t35.5 57.5t62 37.5t91 13.5q103 0 152.5 -50.5t49.5 -132.5q0 -26 -5.5 -44.5t-16.5 -33t-26.5 -27.5t-35.5 -26q31 -12 49.5 -30t28.5 -39.5t13 -46t3 -48.5q0 -51 -17.5 -87t-46 -59t-65.5 -34
t-77 -13q-41 -2 -80 9.5t-69.5 35.5t-49.5 61t-19 87q0 21 3 44t13 45t28.5 41.5t50.5 33.5zM114 487q0 -28 11 -48t28 -32.5t38 -18.5t41 -6q19 0 40 6t37.5 18.5t27.5 32.5t11 48q0 37 -10.5 58.5t-27.5 32.5t-37.5 14.5t-39.5 3.5q-20 0 -41 -2.5t-38.5 -13t-28.5 -32.5
t-11 -61zM105 202q0 -39 12 -65t31 -41t42 -21t45 -6t44 6.5t40 21.5t29 40.5t11 63.5q0 34 -11.5 56.5t-29.5 36.5t-40.5 20t-44.5 6q-26 0 -49 -7t-40.5 -22t-28 -37t-10.5 -52z" />
    <glyph glyph-name="ninearabic" unicode="&#x669;" horiz-adv-x="471" 
d="M113 144q4 -15 9.5 -29.5t16.5 -26t30 -18t50 -6.5t57 11t45 39.5t29 78t10 125.5q-13 -15 -31 -26.5t-38 -18.5t-41 -10.5t-40 -3.5q-88 0 -133 52.5t-45 136.5q0 56 16 97t43.5 68t63.5 40t76 13q54 0 93 -16t64 -53.5t37 -98t12 -150.5q0 -102 -12 -170t-37.5 -109
t-67 -58.5t-99.5 -17.5q-83 0 -128 40t-57 111h77zM353 437q0 34 -5.5 63t-19.5 49t-39.5 31.5t-64.5 11.5q-55 0 -83.5 -36.5t-28.5 -105.5q0 -51 31.5 -83.5t87.5 -32.5q21 0 42.5 6t39 18.5t29 32t11.5 46.5z" />
    <glyph glyph-name="ninearabic" unicode="&#x6f9;" horiz-adv-x="471" 
d="M113 144q4 -15 9.5 -29.5t16.5 -26t30 -18t50 -6.5t57 11t45 39.5t29 78t10 125.5q-13 -15 -31 -26.5t-38 -18.5t-41 -10.5t-40 -3.5q-88 0 -133 52.5t-45 136.5q0 56 16 97t43.5 68t63.5 40t76 13q54 0 93 -16t64 -53.5t37 -98t12 -150.5q0 -102 -12 -170t-37.5 -109
t-67 -58.5t-99.5 -17.5q-83 0 -128 40t-57 111h77zM353 437q0 34 -5.5 63t-19.5 49t-39.5 31.5t-64.5 11.5q-55 0 -83.5 -36.5t-28.5 -105.5q0 -51 31.5 -83.5t87.5 -32.5q21 0 42.5 6t39 18.5t29 32t11.5 46.5z" />
    <glyph glyph-name="percentarabic" unicode="&#x66a;" horiz-adv-x="700" 
d="M239 0h-70l337 666h67zM89 607q0 24 16 40t39 16t38.5 -16t15.5 -40q0 -23 -15.5 -38t-38.5 -15t-39 15t-16 38zM553 49q0 24 16 40t39 16t38.5 -16t15.5 -40q0 -23 -15.5 -38t-38.5 -15t-39 15t-16 38z" />
    <glyph glyph-name="arabicalefsuperscript" unicode="&#x670;" horiz-adv-x="156" 
d="M75 690h31v-159l-17 -2q-4 0 -14 -2v163z" />
    <glyph glyph-name="fourfarsi" unicode="&#x6f4;" horiz-adv-x="539" 
d="M419 663v-446h97v-71h-97v-146h-77v146h-309v78l299 439h87zM342 217v335l-230 -335h230z" />
    <glyph glyph-name="sixfarsi" unicode="&#x6f6;" horiz-adv-x="470" 
d="M357 517q-4 15 -9.5 29.5t-16.5 26t-30 18t-50 6.5q-32 0 -57.5 -11t-44.5 -39.5t-29 -78t-10 -125.5q13 15 31 26.5t38 18.5t41 10.5t40 3.5q88 0 133 -52.5t45 -136.5q0 -56 -16 -97.5t-43.5 -68.5t-63.5 -40.5t-76 -13.5q-54 0 -93 16.5t-64 54t-37 98.5t-12 151
q0 102 12 170t37.5 109t66.5 58.5t100 17.5q83 0 128 -40t57 -111h-77zM117 224q0 -35 5.5 -63t19.5 -47.5t39.5 -30.5t64.5 -11q112 0 112 139q0 51 -31.5 83.5t-87.5 32.5q-21 0 -42.5 -6t-39 -18.5t-29 -32t-11.5 -46.5z" />
    <glyph glyph-name="afii61664" unicode="&#x200c;" horiz-adv-x="22" 
d="M22 0h-22v795h22v-795z" />
    <glyph glyph-name="afii301" unicode="&#x200d;" horiz-adv-x="22" 
d="M78 730l-15 -14l-41 41v-757h-22v757l-41 -41l-15 14l53 53l-53 52l15 15l52 -53l52 53l15 -15l-52 -52z" />
    <glyph glyph-name="afii299" unicode="&#x200e;" horiz-adv-x="22" 
d="M148 783l-67 -67l-15 15l42 42h-86v-773h-22v795h106l-40 40l15 15z" />
    <glyph glyph-name="afii300" unicode="&#x200f;" horiz-adv-x="22" 
d="M22 0h-22v773h-86l42 -42l-15 -15l-67 67l67 67l15 -15l-40 -40h106v-795z" />
    <glyph glyph-name="madda" unicode="&#x653;" horiz-adv-x="436" 
d="M-24 783q26 -14 78.5 -19t115.5 6q17 3 36 6.5t36 6.5q88 16 144 0.5t88 -64.5q-25 14 -75 20t-113 -5q-20 -4 -41 -9t-41 -8q-83 -14 -140.5 2t-87.5 64z" />
    <glyph glyph-name="arabichamzaabove" unicode="&#x654;" horiz-adv-x="254" 
d="M9 734l68 21q-22 5 -34 27t-12 41q0 27 11 49.5t29 38.5t40.5 25.5t45.5 10.5t44 -6t36 -25l-42 -38q-13 10 -31 13t-34.5 -1.5t-28 -16.5t-11.5 -30q0 -15 6.5 -26.5t16 -19.5t20 -12.5t19.5 -5.5l89 26v-53l-232 -69v51z" />
    <glyph glyph-name="arabichamzabelow" unicode="&#x655;" horiz-adv-x="254" 
d="M9 -273l68 21q-22 5 -34 27t-12 41q0 27 11 49.5t29 38.5t40.5 25.5t45.5 10.5t44 -6t36 -25l-42 -38q-13 10 -31 13t-34.5 -1.5t-28 -16.5t-11.5 -30q0 -15 6.5 -26.5t16 -19.5t20 -12.5t19.5 -5.5l89 26v-53l-232 -69v51z" />
    <glyph glyph-name="uni066C" unicode="&#x66c;" horiz-adv-x="174" 
d="M40 686h99l-8 -248h-99z" />
    <glyph glyph-name="uni066B" unicode="&#x66b;" horiz-adv-x="206" 
d="M240 235l-216 -413l-24 12l214 413z" />
    <glyph glyph-name="parenleft" unicode="(" horiz-adv-x="316" 
d="M277 694q-56 -100 -93.5 -208.5t-37.5 -228.5q0 -119 36.5 -228t91.5 -211h-29q-54 56 -89 111.5t-55.5 111t-29 110.5t-8.5 109t8.5 108.5t29.5 109t56.5 108.5t90.5 108h29z" />
    <glyph glyph-name="parenright" unicode=")" horiz-adv-x="310" 
d="M92 694q55 -54 90.5 -108t56.5 -108.5t29.5 -109t8.5 -108.5t-8.5 -109t-29 -110.5t-55.5 -111t-89 -111.5h-29q55 102 91.5 211t36.5 228q0 120 -37.5 228.5t-93.5 208.5h29z" />
    <glyph glyph-name="multiply" unicode="&#xd7;" horiz-adv-x="487" 
d="M425 100l-50 -51l-119 119l-118 -118l-51 50l118 118l-118 119l51 50l118 -118l119 119l50 -51l-118 -119z" />
    <glyph glyph-name="plus" unicode="+" horiz-adv-x="517" 
d="M292 15h-72v168h-167v72h167v167h72v-167h168v-72h-168v-168z" />
    <glyph glyph-name="hyphen" unicode="-" horiz-adv-x="463" 
d="M53 249v72h366v-72h-366z" />
    <glyph glyph-name="uni0656" unicode="&#x656;" horiz-adv-x="589" 
d="M327 -485l-35 -4l-11 147l46 6v-149z" />
    <glyph glyph-name="periodcentered" unicode="&#xb7;" horiz-adv-x="199" 
d="M100 300q12 0 21.5 -4t17.5 -12q15 -17 15 -39q0 -23 -15 -39q-8 -8 -17.5 -12t-21.5 -4q-21 0 -39 16q-16 18 -16 39q0 12 4 21.5t12 17.5q18 16 39 16z" />
    <glyph glyph-name="periodcentered" unicode="&#x2219;" horiz-adv-x="199" 
d="M100 300q12 0 21.5 -4t17.5 -12q15 -17 15 -39q0 -23 -15 -39q-8 -8 -17.5 -12t-21.5 -4q-21 0 -39 16q-16 18 -16 39q0 12 4 21.5t12 17.5q18 16 39 16z" />
    <glyph glyph-name="dottedcircle" unicode="&#x25cc;" horiz-adv-x="649" 
d="M49 387l25 -9q-4 -9 -6.5 -18.5t-4.5 -19.5t-3 -19.5t-2 -19.5h-27q3 44 18 86zM39 215q-6 21 -6 43l25 3q3 -38 20 -78l-26 -9q-5 10 -8 20t-5 21zM121 496l19 -21q-8 -6 -14.5 -13t-13.5 -15q-6 -8 -11.5 -16.5t-11.5 -17.5l-22 13q12 20 25.5 37.5t28.5 32.5zM97 99
q-7 8 -13 17t-13 19l24 13q5 -8 10.5 -16t11.5 -16q7 -8 13.5 -14.5l14.5 -14.5l-18 -19q-19 16 -30 31zM192 544q11 5 20 9.5t20 7.5l9 -25q-39 -13 -71 -36l-17 23q11 6 20 11t19 10zM199 20q-10 5 -19.5 10t-18.5 12l14 21q9 -5 17.5 -10t17.5 -10q15 -7 37 -12l-6 -26
q-23 7 -42 15zM298 574q6 1 12 1h12h9.5t9.5 -1h10.5t9.5 -1l-3 -27q-9 1 -18.5 1.5t-18.5 0.5h-10t-11 -1q-11 0 -21 -3l-6 27q6 1 12.5 1.5t12.5 1.5zM347 -6q-6 -1 -11.5 -1h-11.5q-20 0 -42 3l4 26q16 -3 35 -3q10 0 21 1t22 3l6 -27q-6 -1 -12 -1.5t-11 -0.5zM445 548
q10 -5 19.5 -10t17.5 -13l-15 -20q-16 11 -34 19q-9 5 -18 8t-19 6l8 25q22 -6 41 -15zM452 23q-11 -5 -20.5 -8.5t-19.5 -7.5l-10 25q21 7 38 16q19 10 34 19l16 -22q-9 -6 -19 -11.5t-19 -10.5zM546 469q7 -8 13 -17t12 -19l-23 -14q-8 16 -22 33q-6 7 -12.5 14t-14.5 15
l18 19l15.5 -15.5t13.5 -15.5zM552 106q-14 -17 -30 -33l-18 20q14 11 27 29q13 16 22 33l24 -13q-6 -10 -12 -18.5t-13 -17.5zM605 353q5 -23 5 -43l-24 -3q-1 9 -2.5 19t-4.5 20t-6 19.5t-7 19.5l25 9q5 -10 8.5 -20t5.5 -21zM594 181l-24 9q3 10 5.5 19t4.5 19q4 19 6 39
h26q-2 -44 -18 -86z" />
    <glyph glyph-name="minus" unicode="&#x2212;" horiz-adv-x="507" 
d="M53 183v72h407v-72h-407z" />
    <glyph glyph-name="fivefarsi" unicode="&#x6f5;" horiz-adv-x="499" 
d="M439 663v-72h-255l-34 -185q12 6 27 11t30.5 9t31 6t27.5 2q43 0 79 -13t62 -37.5t41 -60.5t15 -82q0 -54 -15.5 -99.5t-43.5 -78.5t-66 -51.5t-84 -18.5q-35 0 -70 11.5t-64.5 34t-50.5 55.5t-29 77h77q6 -18 17.5 -36t28.5 -33t40.5 -24.5t52.5 -9.5q33 0 57.5 13
t40.5 36t24 54t8 67q0 68 -33 96t-112 28q-12 0 -28 -3.5t-31 -10t-28.5 -15.5t-21.5 -21l-75 1l68 350h314z" />
    <glyph glyph-name="ellipsis" unicode="&#x2026;" horiz-adv-x="646" 
d="M51 51q0 24 16 40t39 16t38.5 -16t15.5 -40q0 -23 -15.5 -38t-38.5 -15t-39 15t-16 38zM268 51q0 24 16 40t39 16t38.5 -16t15.5 -40q0 -23 -15.5 -38t-38.5 -15t-39 15t-16 38zM479 51q0 24 16 40t39 16t38.5 -16t15.5 -40q0 -23 -15.5 -38t-38.5 -15t-39 15t-16 38z
" />
    <glyph glyph-name="uni2010" unicode="&#x2010;" horiz-adv-x="411" 
d="M343 0h-275v73h275v-73z" />
    <glyph glyph-name="braceleft" unicode="{" horiz-adv-x="340" 
d="M24 296q55 2 78 43t23 139q0 69 7 111t26.5 65.5t53.5 33t89 12.5v-72q-42 0 -62 -10t-27 -34t-7 -64.5t-2 -102.5q-3 -36 -9 -60.5t-15.5 -42t-24 -30.5t-33.5 -25q51 -29 68 -104t17 -196q0 -21 4 -34t14.5 -20t29 -9.5t47.5 -2.5v-74q-63 0 -98.5 13t-53 39t-21 64
t-3.5 89q0 33 -1.5 68t-11 64.5t-30 48t-58.5 18.5v73z" />
    <glyph glyph-name="bar" unicode="|" horiz-adv-x="297" 
d="M87 700h77v-881h-77v881z" />
    <glyph glyph-name="braceright" unicode="}" horiz-adv-x="327" 
d="M301 223q-38 0 -58.5 -18.5t-30 -48t-11 -64.5t-1.5 -68q0 -51 -3.5 -89t-21 -64t-53 -39t-98.5 -13v74q29 0 47.5 2.5t29 9.5t14.5 20t4 34q0 121 17 196t68 104q-19 12 -33.5 25t-24 30.5t-15.5 42t-9 60.5q-2 62 -2 102.5t-7 64.5t-27 34t-62 10v72q55 -3 89 -12.5
t53.5 -33t26.5 -65.5t7 -111q0 -98 23 -139t78 -43v-73z" />
    <glyph glyph-name="bracketleft" unicode="[" horiz-adv-x="293" 
d="M61 -181v880h185l-3 -73h-105v-735h108v-72h-185z" />
    <glyph glyph-name="bracketright" unicode="]" horiz-adv-x="307" 
d="M61 -181v72h108v735h-105l-3 73h185v-880h-185z" />
    <glyph glyph-name="quotedbl" unicode="&#x22;" horiz-adv-x="305" 
d="M58 686h60v-248h-60v248zM194 686h60v-248h-60v248z" />
    <glyph glyph-name="numbersign" unicode="#" horiz-adv-x="562" 
d="M121 179h-68v70h81l32 168h-113v70h130l36 179h70l-36 -179h123l36 179h73l-37 -179h68v-70h-83l-33 -168h116v-70h-130l-37 -179h-71l38 179h-126l-35 -179h-71zM240 417l-36 -168h126l31 168h-121z" />
    <glyph glyph-name="dollar" unicode="$" horiz-adv-x="438" 
d="M209 276q-88 26 -128.5 71t-40.5 112q0 65 41 112q41 44 128 53v43h33v-42q134 -15 163 -128q-24 -2 -42.5 -5t-39.5 -5q-7 24 -25.5 47.5t-55.5 29.5v-218q85 -25 134.5 -70.5t49.5 -102.5q0 -73 -44 -125q-44 -50 -140 -65v-71h-33v69q-75 10 -119 49.5t-59 116.5l79 8
q5 -17 11.5 -34t17.5 -31.5t27.5 -25.5t42.5 -16v228zM209 564q-26 -3 -43 -13.5t-27 -24.5t-14.5 -30.5t-4.5 -31.5q0 -28 22 -59t67 -51v210zM242 48q46 5 76 33.5t30 75.5q0 35 -24.5 64t-81.5 46v-219z" />
    <glyph glyph-name="percent" unicode="%" horiz-adv-x="771" 
d="M43 499q0 86 31 124t95 38q66 0 98 -38t32 -124q0 -85 -32.5 -122.5t-95.5 -37.5q-66 0 -97 37.5t-31 122.5zM111 500q0 -49 13 -76t45 -27q34 0 47 29.5t13 73.5q0 20 -3.5 38.5t-10.5 33t-18.5 23.5t-27.5 9q-17 0 -28.5 -8.5t-18 -23t-9 -33.5t-2.5 -39zM251 0h-70
l337 666h67zM467 160q0 86 31 124t95 38q66 0 98 -38t32 -124q0 -85 -32.5 -122.5t-95.5 -37.5q-66 0 -97 37.5t-31 122.5zM535 161q0 -49 13 -76t45 -27q34 0 47 29.5t13 73.5q0 20 -3.5 38.5t-10.5 33t-18.5 23.5t-27.5 9q-17 0 -28.5 -8.5t-18 -23t-9 -33.5t-2.5 -39z
" />
    <glyph glyph-name="ampersand" unicode="&#x26;" horiz-adv-x="596" 
d="M531 8q-24 14 -50 34.5t-54 44.5q-45 -39 -90.5 -63.5t-105.5 -24.5q-43 0 -81.5 10.5t-67 32t-45.5 54.5t-17 78q0 62 43 113.5t123 86.5q-49 42 -70 86t-21 74q0 35 15.5 60t40 41t54.5 23.5t59 7.5q40 0 71.5 -11t53 -29.5t32.5 -44t11 -54.5q0 -17 -5 -34t-20 -36.5
t-42 -42t-71 -48.5l131 -168q13 16 25 39.5t20 60.5l20 -5t15 -3.5t15 -3t19 -4.5q-8 -38 -24.5 -75.5t-39.5 -64.5q25 -22 51.5 -37.5t51.5 -32.5zM253 409q55 32 79.5 58.5t24.5 63.5q0 31 -25.5 53t-64.5 22q-41 0 -66.5 -19.5t-25.5 -47.5q0 -9 3.5 -24t12.5 -32
t24 -36.5t38 -37.5zM225 328q-65 -30 -93.5 -69t-28.5 -77q0 -49 34.5 -80.5t87.5 -31.5q34 0 73.5 16t81.5 52z" />
    <glyph glyph-name="quotesingle" unicode="'" horiz-adv-x="172" 
d="M58 686h60v-248h-60v248z" />
    <glyph glyph-name="asterisk" unicode="*" horiz-adv-x="615" 
d="M586 210q0 -45 -11 -79t-32 -59q-41 -43 -111 -43q-3 0 -17 0.5t-41 11.5q4 29 9 47q0 -2 3 -2q9 -2 18.5 -3t19.5 -1q61 0 98 49q36 45 36 106q0 48 -31.5 114t-97.5 151q-47 60 -74 96t-35 47q-13 -16 -13 -35q0 -25 25 -51q10 -10 24.5 -25.5t34.5 -38.5
q39 -44 51 -84v-4q3 -12 3 -26q0 -18 -7 -32l45 42v-1q18 -60 18 -107q0 -27 -8 -43q-13 -29 -52 -74l-63 -69q-8 -16 -17 -89q-2 -22 -3.5 -38t-2.5 -24q-10 -52 -54 -52q-63 0 -103 90q4 2 7.5 5t7.5 5q27 -59 63 -59q2 0 4 0.5t4 0.5q27 8 38 50l11 72q2 17 5.5 31.5
t7.5 28.5q1 5 4 10.5t7 11.5q18 30 72 81l15 15q44 52 40 89q-8 -11 -44 -39q-32 -24 -42 -43q-5 14 -7 23.5t-4 13.5q-5 22 9 37q29 32 26 70q-1 9 -3.5 18.5t-8.5 18.5q-8 11 -28.5 35t-55.5 63q3 -18 3 -35q0 -56 -34 -120q-40 -73 -38 -132l-12 -11q-2 10 -2 19.5v18.5
q0 49 44 152q27 64 27 100q0 14 -11 42q-5 14 -7.5 25t-2.5 18q0 27 21 56q-22 41 -22 75q0 48 26 66q7 7 15 7q1 -1 1 -2l-1 -2q-26 -14 -26 -42q0 -44 40 -94q35 -44 60.5 -77.5t42.5 -56.5q33 -46 57 -86.5t41 -75.5q20 -41 29 -80t9 -77zM241 528q1 -26 -26 -28
q-28 -1 -29 27q0 26 27 28q26 0 28 -27zM389 389q0 -5 -31 -39l-28 -31q-2 -3 -4.5 -6t-3.5 -7l-3 18q0 3 30 39l29 29q2 5 4 8t3 5zM501 154l-18 -42l-36 16l20 43zM386 229l-20 -42l-36 16l21 43zM168 374q1 -3 -3 -9l-20 -18q-11 -17 -11 -29q3 -9 9 -9q4 0 6 2q0 4 6 15
q5 0 5 -4q0 -18 -13 -29q-6 -3 -9 -3q-7 0 -11 10q-7 17 5 39q10 17 28 30q5 6 8 5zM315 237q3 -18 -18 -36l-39 -35q-4 -8 -5 -16q-9 -76 -15 -100q-15 -54 -51 -62q-4 -1 -8 -1.5t-11 -0.5q-73 0 -100 100q-9 37 -7 85q-1 0 -1 1v2q-9 16 -17 50q-3 17 -4 30.5t-1 24.5
q7 83 76 137q26 16 57 35.5t69 44.5q36 32 31 61l-1 -1q-10 -9 -20 -10q-26 0 -27 27q0 28 26 29q17 0 28 -17q5 -12 8.5 -29t3.5 -40q0 -26 -3.5 -45.5t-8.5 -33.5q-10 -20 -24 -50.5t-32 -71.5q-38 -88 -38 -181q0 -21 2 -40t6 -37q-2 -4 -5.5 -6.5t-6.5 -4.5
q-5 26 -7.5 54.5t-1.5 60.5q0 47 9 92t29 90l56 122q4 10 7 20.5t4 22.5q-10 -22 -31 -40q-26 -15 -53.5 -34t-58.5 -43q-65 -53 -72 -135q-1 -13 0 -26t5 -28q11 50 38 50q30 3 51 -56q6 -17 6 -40q0 -45 -33 -45q-27 0 -49 30v-5q0 -42 14 -69q20 -37 57 -37
q33 0 54.5 36.5t29.5 109.5q5 31 17 41l40 38q17 16 19 24zM335 112q-2 -8 -4 -18t-4 -22q-20 17 -36 39t-27 49l13 12q20 -34 58 -60zM434 -33q3 -11 -5 -14q-9 -5 -22 9q-8 11 -12 22l-6 16q-2 4 1 7q3 2 5 -6t10 -21q4 -9 14 -6q3 3 3 8v6q8 -3 12 -21zM314 52l-31 -35
l-29 26l29 34zM307 -9l-30 -35l-30 25l30 36zM139 186q-6 18 -21 18q-24 0 -36 -35q13 -11 28 -11q28 0 29 28z" />
    <glyph glyph-name="zero" unicode="0" horiz-adv-x="531" 
d="M256 671q58 0 99.5 -17.5t68 -57.5t38.5 -105t12 -161q0 -95 -15 -160t-43 -105.5t-68.5 -58t-91.5 -17.5q-45 0 -85.5 13t-70.5 50.5t-47.5 104.5t-17.5 175q0 94 12 159t38.5 105t68.5 57.5t102 17.5zM256 599q-42 0 -68.5 -12t-41.5 -42.5t-20.5 -82.5t-5.5 -132
q0 -87 7 -139t23 -80t42 -37t64 -9q39 0 64 11.5t40 41t21 81t6 131.5q0 87 -6 140t-21 81.5t-40 38t-64 9.5z" />
    <glyph glyph-name="one" unicode="1" horiz-adv-x="287" 
d="M25 522q41 24 78 59t57 77l3 5h63v-663h-77v524q-26 -25 -58 -48t-66 -40v86z" />
    <glyph glyph-name="two" unicode="2" horiz-adv-x="492" 
d="M41 468q0 40 12.5 75.5t37.5 62t62 42t86 15.5t86.5 -14.5t63 -40t38 -59.5t12.5 -73q0 -36 -8.5 -62.5t-28.5 -52t-53 -56.5t-81 -76q-17 -16 -33.5 -31.5t-32 -33.5t-30.5 -40t-29 -52h311v-72h-419q7 33 19 65.5t32.5 66.5t51 71t74.5 79q22 21 47 40.5t46 40.5
t34.5 46t13.5 57q0 24 -5 46.5t-18 40t-36 28t-59 10.5q-20 0 -41 -7t-38 -22t-27.5 -38.5t-10.5 -55.5h-77z" />
    <glyph glyph-name="three" unicode="3" horiz-adv-x="454" 
d="M28 501q9 47 29.5 79.5t47.5 52t58 28t61 8.5q88 0 135 -46t47 -123q0 -48 -20.5 -83.5t-78.5 -56.5q63 -13 95.5 -49t32.5 -102q0 -49 -16 -88.5t-43.5 -68t-65.5 -44t-81 -15.5q-86 0 -137.5 46.5t-64.5 137.5h77q5 -21 12 -40t20.5 -34t35 -24t56.5 -9q38 0 62.5 12
t38.5 32.5t19 46.5t5 54q0 27 -11 47.5t-28.5 34.5t-38.5 21t-42 7h-43l-2 72h4q26 0 50 7t42 20t29 30t11 38q0 18 -4 36.5t-15.5 32.5t-31.5 23t-52 9q-29 0 -49 -7.5t-33.5 -20.5t-21 -29.5t-12.5 -34.5h-77z" />
    <glyph glyph-name="four" unicode="4" horiz-adv-x="541" 
d="M419 663v-446h97v-71h-97v-146h-77v146h-309v78l299 439h87zM342 217v335l-230 -335h230z" />
    <glyph glyph-name="five" unicode="5" horiz-adv-x="494" 
d="M439 663v-72h-255l-34 -185q12 6 27 11t30.5 9t31 6t27.5 2q43 0 79 -13t62 -37.5t41 -60.5t15 -82q0 -54 -15.5 -99.5t-43.5 -78.5t-66 -51.5t-84 -18.5q-35 0 -70 11.5t-64.5 34t-50.5 55.5t-29 77h77q6 -18 17.5 -36t28.5 -33t40.5 -24.5t52.5 -9.5q33 0 57.5 13
t40.5 36t24 54t8 67q0 68 -33 96t-112 28q-12 0 -28 -3.5t-31 -10t-28.5 -15.5t-21.5 -21l-75 1l68 350h314z" />
    <glyph glyph-name="six" unicode="6" horiz-adv-x="464" 
d="M357 517q-4 15 -9.5 29.5t-16.5 26t-30 18t-50 6.5q-32 0 -57.5 -11t-44.5 -39.5t-29 -78t-10 -125.5q13 15 31 26.5t38 18.5t41 10.5t40 3.5q88 0 133 -52.5t45 -136.5q0 -56 -16 -97.5t-43.5 -68.5t-63.5 -40.5t-76 -13.5q-54 0 -93 16.5t-64 54t-37 98.5t-12 151
q0 102 12 170t37.5 109t66.5 58.5t100 17.5q83 0 128 -40t57 -111h-77zM117 224q0 -35 5.5 -63t19.5 -47.5t39.5 -30.5t64.5 -11q112 0 112 139q0 51 -31.5 83.5t-87.5 32.5q-21 0 -42.5 -6t-39 -18.5t-29 -32t-11.5 -46.5z" />
    <glyph glyph-name="seven" unicode="7" horiz-adv-x="464" 
d="M438 663l1 -72q-40 -46 -81.5 -116t-77 -150.5t-59 -165t-27.5 -159.5h-81q4 72 25 152t53.5 158t74 150.5t86.5 130.5h-327v72h413z" />
    <glyph glyph-name="eight" unicode="8" horiz-adv-x="469" 
d="M115 353q-21 16 -36.5 29.5t-26 28t-15.5 32t-5 41.5q0 41 11.5 74.5t35.5 57.5t62 37.5t91 13.5q103 0 152.5 -50.5t49.5 -132.5q0 -26 -5.5 -44.5t-16.5 -33t-26.5 -27.5t-35.5 -26q31 -12 49.5 -30t28.5 -39.5t13 -46t3 -48.5q0 -51 -17.5 -87t-46 -59t-65.5 -34
t-77 -13q-41 -2 -80 9.5t-69.5 35.5t-49.5 61t-19 87q0 21 3 44t13 45t28.5 41.5t50.5 33.5zM114 487q0 -28 11 -48t28 -32.5t38 -18.5t41 -6q19 0 40 6t37.5 18.5t27.5 32.5t11 48q0 37 -10.5 58.5t-27.5 32.5t-37.5 14.5t-39.5 3.5q-20 0 -41 -2.5t-38.5 -13t-28.5 -32.5
t-11 -61zM105 202q0 -39 12 -65t31 -41t42 -21t45 -6t44 6.5t40 21.5t29 40.5t11 63.5q0 34 -11.5 56.5t-29.5 36.5t-40.5 20t-44.5 6q-26 0 -49 -7t-40.5 -22t-28 -37t-10.5 -52z" />
    <glyph glyph-name="nine" unicode="9" horiz-adv-x="465" 
d="M113 144q4 -15 9.5 -29.5t16.5 -26t30 -18t50 -6.5t57 11t45 39.5t29 78t10 125.5q-13 -15 -31 -26.5t-38 -18.5t-41 -10.5t-40 -3.5q-88 0 -133 52.5t-45 136.5q0 56 16 97t43.5 68t63.5 40t76 13q54 0 93 -16t64 -53.5t37 -98t12 -150.5q0 -102 -12 -170t-37.5 -109
t-67 -58.5t-99.5 -17.5q-83 0 -128 40t-57 111h77zM353 437q0 34 -5.5 63t-19.5 49t-39.5 31.5t-64.5 11.5q-55 0 -83.5 -36.5t-28.5 -105.5q0 -51 31.5 -83.5t87.5 -32.5q21 0 42.5 6t39 18.5t29 32t11.5 46.5z" />
    <glyph glyph-name="less" unicode="&#x3c;" horiz-adv-x="595" 
d="M38 203v99l476 214v-116l-327 -147l327 -148v-116z" />
    <glyph glyph-name="greater" unicode="&#x3e;" horiz-adv-x="595" 
d="M38 -11v116l328 148l-328 147v116l476 -214v-99z" />
    <glyph glyph-name="at" unicode="@" horiz-adv-x="924" 
d="M822 -10h71q-29 -57 -76 -95.5t-101.5 -62.5t-110.5 -34t-103 -10q-100 0 -187 25t-151 76.5t-101 129.5t-37 183q0 102 36 187t99 145.5t148 94t184 33.5q80 0 150.5 -24t123 -69.5t83 -111t30.5 -147.5q0 -64 -23 -123.5t-63.5 -105t-95.5 -73t-119 -27.5q-38 0 -57 13
t-25 39q-55 -52 -124 -52q-77 0 -120.5 52t-43.5 140q0 61 17.5 116t49 96.5t75 66t94.5 24.5q41 0 74.5 -16.5t53.5 -48.5l13 54h86l-70 -328q-2 -15 -4 -25t-2 -15q0 -6 5 -10t12 -7t14 -4.5t11 -1.5q49 0 82 27t52.5 65.5t28 79.5t8.5 69q0 77 -28 129.5t-73 84.5
t-102 46t-115 14q-101 0 -175.5 -31t-123.5 -85t-72.5 -125.5t-23.5 -152.5q0 -167 103.5 -254.5t294.5 -87.5q110 0 192.5 32.5t135.5 104.5zM294 178q0 -30 10 -53t25 -38.5t33 -23t34 -7.5q48 0 77.5 28t46 66t22 77t5.5 60q0 35 -8.5 58.5t-22 37t-30 19t-31.5 5.5
q-42 0 -72.5 -21t-50 -54.5t-29 -74t-9.5 -79.5z" />
    <glyph glyph-name="backslash" unicode="\" horiz-adv-x="497" 
d="M47 666h87l337 -666h-90z" />
    <glyph glyph-name="fourarabic" unicode="&#x664;" horiz-adv-x="550" 
d="M419 663v-446h97v-71h-97v-146h-77v146h-309v78l299 439h87zM342 217v335l-230 -335h230z" />
    <glyph glyph-name="fivearabic" unicode="&#x665;" horiz-adv-x="490" 
d="M439 663v-72h-255l-34 -185q12 6 27 11t30.5 9t31 6t27.5 2q43 0 79 -13t62 -37.5t41 -60.5t15 -82q0 -54 -15.5 -99.5t-43.5 -78.5t-66 -51.5t-84 -18.5q-35 0 -70 11.5t-64.5 34t-50.5 55.5t-29 77h77q6 -18 17.5 -36t28.5 -33t40.5 -24.5t52.5 -9.5q33 0 57.5 13
t40.5 36t24 54t8 67q0 68 -33 96t-112 28q-12 0 -28 -3.5t-31 -10t-28.5 -15.5t-21.5 -21l-75 1l68 350h314z" />
    <glyph glyph-name="sixarabic" unicode="&#x666;" horiz-adv-x="463" 
d="M357 517q-4 15 -9.5 29.5t-16.5 26t-30 18t-50 6.5q-32 0 -57.5 -11t-44.5 -39.5t-29 -78t-10 -125.5q13 15 31 26.5t38 18.5t41 10.5t40 3.5q88 0 133 -52.5t45 -136.5q0 -56 -16 -97.5t-43.5 -68.5t-63.5 -40.5t-76 -13.5q-54 0 -93 16.5t-64 54t-37 98.5t-12 151
q0 102 12 170t37.5 109t66.5 58.5t100 17.5q83 0 128 -40t57 -111h-77zM117 224q0 -35 5.5 -63t19.5 -47.5t39.5 -30.5t64.5 -11q112 0 112 139q0 51 -31.5 83.5t-87.5 32.5q-21 0 -42.5 -6t-39 -18.5t-29 -32t-11.5 -46.5z" />
    <glyph glyph-name="lam-alef-comp" horiz-adv-x="659" 
d="M112 508q5 3 16.5 7.5t22.5 9.5q13 5 27 11q32 -50 60 -115.5t51.5 -131t40.5 -123.5t27 -94h10q19 0 35.5 4t28.5 14.5t19 30t7 49.5v470l77 24v-532q0 -32 16.5 -46t43.5 -14h80v-72h-35q-48 0 -82 13.5t-51 43.5q-11 -14 -23.5 -25t-30 -18t-41.5 -10.5t-59 -3.5h-332
l24 72h240q-8 35 -22.5 87.5t-36 111.5t-50 121t-63.5 116z" />
    <glyph glyph-name="hamza-comp" horiz-adv-x="254" 
d="M9 734l68 21q-22 5 -34 27t-12 41q0 27 11 49.5t29 38.5t40.5 25.5t45.5 10.5t44 -6t36 -25l-42 -38q-13 10 -31 13t-34.5 -1.5t-28 -16.5t-11.5 -30q0 -15 6.5 -26.5t16 -19.5t20 -12.5t19.5 -5.5l89 26v-53l-232 -69v51z" />
    <glyph glyph-name="madda-lamalef-comp" horiz-adv-x="448" 
d="M-24 783q26 -14 78.5 -19t115.5 6q17 3 36 6.5t36 6.5q88 16 144 0.5t88 -64.5q-25 14 -75 20t-113 -5q-20 -4 -41 -9t-41 -8q-83 -14 -140.5 2t-87.5 64z" />
    <glyph glyph-name="ya-med-comp" 
d="M173 72v330l77 22v-352h162v-72h-427v72h188z" />
    <glyph glyph-name="two-dots-comp" horiz-adv-x="341" 
d="M33 -142q0 24 16 40t39 16t38.5 -16t15.5 -40q0 -23 -15.5 -38t-38.5 -15t-39 15t-16 38zM197 -142q0 24 16 40t39 16t38.5 -16t15.5 -40q0 -23 -15.5 -38t-38.5 -15t-39 15t-16 38z" />
    <glyph glyph-name="alef-mid-comp" horiz-adv-x="248" 
d="M74 642l77 22v-592h112v-72h-189v642z" />
    <glyph glyph-name="madda-alef-comp" horiz-adv-x="436" 
d="M-24 783q26 -14 78.5 -19t115.5 6q17 3 36 6.5t36 6.5q88 16 144 0.5t88 -64.5q-25 14 -75 20t-113 -5q-20 -4 -41 -9t-41 -8q-83 -14 -140.5 2t-87.5 64z" />
    <glyph glyph-name="alef-comp" horiz-adv-x="208" 
d="M61 642l77 22v-664h-77v642z" />
    <glyph glyph-name="one-dot-comp" horiz-adv-x="174" 
d="M33 546q0 24 16 40t39 16t38.5 -16t15.5 -40q0 -23 -15.5 -38t-38.5 -15t-39 15t-16 38z" />
    </font>
</defs>
</svg>
